<?xml version="1.0" encoding="utf-8"?>
<!-- Generator: Adobe Illustrator 21.0.0, SVG Export Plug-In . SVG Version: 6.00 Build 0)  -->
<svg version="1.1" id="Layer_1" xmlns="http://www.w3.org/2000/svg" xmlns:xlink="http://www.w3.org/1999/xlink" x="0px" y="0px"
	 viewBox="0 0 100 100" style="enable-background:new 0 0 100 100;" xml:space="preserve">
<style type="text/css">
	.st0{fill:#555658;}
	.st1{fill:#A5A7AA;}
	.st2{fill:#A6A8AB;}
	.st3{fill:#F0F0F0;}
	.st4{fill:#E5E5E6;}
	.st5{fill:#9A9B9D;}
	.st6{fill:#DADBDC;}
	.st7{fill:#B5B6B7;}
	.st8{fill:#FEFEFE;}
	.st9{fill:#ADAEAF;}
	.st10{fill:#CCCDCF;}
	.st11{fill:#6A6B6D;}
	.st12{fill:#BDBEBF;}
	.st13{fill:#3F4041;}
	.st14{fill:#D4D5D6;}
	.st15{fill:#7C7D7F;}
</style>
<path class="st0" d="M39.5,63.6c0.1,0.1,0.3,0.3,0.4,0.4c1.1,1.1,2.4,1.6,3.9,1.6c0.7,0.1,1.7,0,1.4,1.2c-0.4,0.2-0.3,0.7-0.7,0.9
	c-0.2-0.1-0.3-0.3-0.5-0.4c-0.2-0.7-0.7-0.5-1.2-0.5c-5.7,0-11.4,0-17.1,0c-0.1-0.1-0.2-0.2-0.3-0.2c0-0.7,0.5-0.8,1.1-0.9
	c1.2-0.2,2.3-0.5,3.3-1.3c0.5-0.2,0.9-0.5,1.2-0.9c0.3-0.1,0.5-0.3,0.6-0.5c1.5-1.8,2.7-3.8,3.9-5.9c3.5-6.2,7.1-12.5,10.6-18.7
	c1.4-2.5,2.8-5.1,4.2-7.6c0.3-0.3,0.7-0.6,1-0.9c0.9,0,1.3,0.7,1.7,1.4c4.7,8.5,9.4,16.9,14.1,25.4c1,1.8,2,3.6,3.1,5.4
	c0.8,1.3,1.7,2.4,3.2,3c0.8,0.7,1.9,0.7,2.9,0.7c1.4,0.1,1.5,0.2,1,1.6c-0.5,0-0.8,0.5-1.4,0.5c-3.6-0.1-7.2,0.5-10.7,0.2
	c-2.5-0.2-5-0.3-7.5-0.1c-2.4,0.2-4.8-0.2-7.3-0.1c-1,0-1.3-0.3-1.2-1.2c0.1-0.1,0.1-0.2,0.2-0.4c0.1-0.2,0.3-0.3,0.4-0.5
	c0.9,0,1.9-0.1,2.8-0.1c0.3,0.1,0.6,0.1,0.7-0.2c0.4-0.1,0.8,0.1,1.1-0.2c0.1-0.1,0.3-0.1,0.4-0.2c0.2-0.2,0.6-0.3,0.6-0.7
	c0.3-0.7-0.1-0.9-0.7-1c-0.1-0.2-0.1-0.3-0.2-0.5c-0.1-0.4,0.1-0.9-0.5-0.9c-0.3-0.5-0.6-1-0.9-1.5c0-0.2,0-0.5-0.1-0.7
	c0-0.3-0.1-0.5-0.4-0.5c-0.1-0.4-0.3-0.7-0.7-0.7C52,58,51.7,58,51.3,58c-0.4,0-0.8,0-1.2,0c-0.1-0.2-0.3-0.3-0.5,0
	c-0.2,0-0.3,0-0.5,0.1c-0.2,0-0.5,0-0.7,0.1c-0.4,0-0.9-0.1-1.3-0.1c-2.5,0-5-0.1-7.5-0.1c0-0.2,0-0.4-0.1-0.6c3.4,0,6.8-0.1,10.3,0
	c1.2,0,2.4,0.1,3.4,0.7c0,0.2,0.1,0.4,0.2,0.5c0,0.2-0.1,0.5,0.2,0.6c0,0,0.2-0.1,0.2-0.1c0.1-0.3-0.2-0.4-0.4-0.5
	c0-0.2-0.1-0.4-0.2-0.5c-0.3-1.1-1.2-1.2-2.1-1.2c-3.8,0-7.6,0-11.4,0c-0.4,0-0.8-0.1-0.9,0.5c-0.4,0.1-0.9-0.2-1,0.5
	c0,0.2-0.1,0.4-0.1,0.6c-0.1,0.4-0.2,0.9,0,1.3c0.1,0.3,0.1,0.6,0.2,0.9C38,61.8,38.6,62.8,39.5,63.6z M48.2,49.1
	c0,0,0.1,0.1,0.1,0.1C48.3,49.2,48.2,49.1,48.2,49.1c0-0.2,0-0.4-0.2-0.5c0-0.2,0-0.4-0.2-0.5c0-0.1-0.1-0.2-0.1-0.3
	c0,0-0.1,0.1-0.1,0.1c0.1,0.1,0.1,0.2,0.2,0.3c0,0.2,0.1,0.4,0.2,0.5C48,48.8,48,49,48.2,49.1z M49.6,51.8c0,0,0.1,0.1,0.1,0.1
	C49.7,51.8,49.7,51.8,49.6,51.8c0-0.2,0-0.4-0.2-0.5c0-0.4-0.1-0.8-0.5-1c0-0.1-0.1-0.2-0.1-0.3c0,0-0.1,0.1-0.1,0.1
	c0.1,0.1,0.1,0.2,0.2,0.3c0,0.4,0.1,0.8,0.5,1C49.4,51.5,49.4,51.7,49.6,51.8z M54.9,61.1c0-0.1-0.1-0.2-0.1-0.3
	c0,0-0.1,0.1-0.1,0.1C54.8,61,54.9,61,54.9,61.1c0.1,0.3-0.2,0.7,0.4,0.8C55.4,61.5,55.2,61.3,54.9,61.1z M55.9,45.3
	c0,0,0.1,0.1,0.1,0.1C56,45.3,55.9,45.3,55.9,45.3c-0.6-1.1-1.2-1.2-2.4-0.5C54.4,44.6,55.1,45.1,55.9,45.3z M57.6,48.6
	c0.1-0.7-0.4-1-1-0.9c-0.6,0-1.4-0.5-1.7,0.5c-0.6,0.3-1.2,0.2-1.7,0.1c-1.1-0.2-2.1-0.2-3.2-0.2c-0.2,0-0.5-0.1-0.5,0.3
	c0,0.2,0.2,0.3,0.4,0.3c0.1,0.9,0.6,1.3,1.5,1.3c1.4,0,2.9,0,4.3,0c0.9,0,1.9,0.2,2.8-0.1c-0.3-0.4-0.8-0.4-0.7-0.9
	C58,48.7,57.8,48.7,57.6,48.6z M49.6,36c-0.5,0.1-0.9,0.4-0.8,0.9c0.1,0.5,0.6,0.2,1,0.3c0.4,0,0.9,0,1.6,0
	c-0.5-0.3-0.6-0.4-0.8-0.5c-0.2-0.5-0.5-1-0.8-1.6C49.5,35.4,49.6,35.7,49.6,36z M46.5,42.7L46.5,42.7c0.3,0.8,0.9,1,1.7,1
	c1.5,0,2.9,0,4.4,0c0.6,0,1.2,0,1.9,0c0.1,0,0.4,0,0.3-0.2c0-0.1-0.3-0.1-0.4-0.2c0-0.3,0-0.5,0-0.8c0.1-0.7-0.3-1.2-0.9-1.2
	c-1.1,0-2.2-0.6-3.2,0.4c-0.7,0-1.5,0.1-2.2,0.1c-0.2,0-0.4,0-0.7,0c-0.2-0.3-0.5-0.3-0.7-0.1c-1.1,0.1-0.7,0.5-0.2,0.9
	C46.3,42.7,46.4,42.7,46.5,42.7z M65.5,62.8c-0.2-0.1-0.3-0.2-0.5-0.2c0-0.2,0-0.5,0-0.7c0.3-1.2-0.7-1.2-1.3-1.2
	c-1.4-0.1-2.8,0-4.2,0c-0.3,0-0.7,0-0.7,0.4c-0.4,0.1-0.9-0.1-1.2,0.2c-0.3,0.2-0.6-0.4-0.8-0.1c-0.2,0.2,0.1,0.4,0.2,0.6
	c0.1,0.7,0.2,1.3,1.2,1.3c1.9,0,3.8,0,5.7,0c0.6,0.2,1.1,0.1,1.7,0.1c0.1,0.1,0.3,0.1,0.4-0.1C65.9,62.8,65.6,62.8,65.5,62.8z
	 M52.3,39.1c0.1-0.1,0.3-0.2,0.2-0.4c-0.5-1-3-1.2-3.7-0.4c-0.4,0.1-1-0.1-1.2,0.5c-0.7,1.5-0.7,1.5,0.9,1.5c1.1,0,2.2,0,3.2,0.1
	c0.6,0,0.6,0,0.9-0.5C52.5,39.6,52.4,39.4,52.3,39.1z M60.4,56.6c0.6,0.1,1.1,0.3,1.7-0.2c-0.7-0.6-1.3-1.2-2.2-1.3
	c-2.2-0.3-4.4-0.5-6.6-0.7c-0.2,0-0.4,0-0.5,0.3c0,0.2,0.1,0.4,0.3,0.4c0.6,1,1.5,1.6,2.7,1.5C57.4,56.6,58.9,56.8,60.4,56.6z
	 M40.1,52.7c-0.3,0.5-0.5,0.9-0.7,1.4c-0.2,0.5-1,1.1-0.6,1.5c0.3,0.4,1.2,0.2,1.8,0.1c2.2,0,4.4,0,6.7,0c1,0,2.1,0,3.1,0
	c0.5,0.1,0.9,0.1,1.5-0.1c-3.5-3.4-5.2-7.6-7-11.7c-0.6,1.2-1.5,2.4-2.1,3.9c-0.8,1.4-1.5,2.8-2.3,4.2C40.2,52.3,40,52.5,40.1,52.7z
	 M66.8,65.7c-0.3-0.8-0.9-1.1-1.6-1.1c-2.5,0-4.9-0.1-7.4-0.1c-0.2,0-0.5,0-0.7,0.1c-0.3,0.1-0.5,0.4-0.5,0.8c0,0.4,0.4,0.4,0.7,0.4
	C60.5,65.8,63.6,65.9,66.8,65.7z M47.8,44.9c0.3,1.6,0.8,2,2.4,2c1.1,0,2.2,0,3.2,0c1,0,2,0.1,3.1-0.1
	C54.6,45.4,51.3,44.7,47.8,44.9z M60.3,53.4c-2.9-2.1-6.1-1.4-9.1-2c0.5,0.9,0.7,1.9,1.9,2C55.4,53.6,57.7,53.4,60.3,53.4z M50,67
	c0,0.1,0,0.2,0,0.2c8.7,0,17.4,0,26.1,0c0-0.1,0-0.2,0-0.2C67.4,67,58.7,67,50,67z M63.9,59.9c-2.9-2.2-6.1-1.3-9.2-2.2
	c0.4,1,0.6,2.1,1.8,2.1C58.8,60,61.2,59.9,63.9,59.9z M35.5,65.6c-1.5-1.5-3.3-1.5-4.8,0C32.4,65.6,33.9,65.6,35.5,65.6z M63,58
	c-0.7-0.8-1.6-0.4-2.5-0.4C61.3,57.6,62.1,58,63,58z M57.1,51.1c0.7,0.1,1.5,0.3,2.4,0.5C58.7,51,58.7,51,57.1,51.1z M50.6,53.1
	c0-0.1,0-0.2-0.1-0.3c0,0-0.2,0-0.3,0.1c0,0.1,0,0.2,0.1,0.3C50.4,53.3,50.5,53.3,50.6,53.1z M46.3,45.4c-0.1,0-0.1,0.1-0.2,0.1
	c0,0.1,0,0.1,0.1,0.2c0.1,0,0.1-0.1,0.2-0.1C46.4,45.5,46.3,45.4,46.3,45.4z M47.2,46.9C47.2,46.9,47.1,46.9,47.2,46.9
	c-0.1-0.1-0.1,0-0.1,0C47.1,47,47.1,47,47.2,46.9C47.2,47,47.2,47,47.2,46.9z M46.7,46.2C46.7,46.2,46.7,46.2,46.7,46.2
	c-0.1-0.1-0.1,0-0.1,0C46.6,46.2,46.6,46.3,46.7,46.2C46.7,46.3,46.7,46.3,46.7,46.2z"/>
<path class="st1" d="M16.5,9.8c5.4,0.4,9.7,3.2,13.5,6.7c5.4,5,8.4,11.3,10.4,18.2c0.1,1.3,0.7,2.5,1,3.8c0,0.2-0.1,0.4-0.1,0.5
	c-0.5-0.1-0.8-0.6-1-0.9c-0.6-0.7-1.1-1.4-1.9-1.9c-3.9-5-8.1-9.7-15.4-8.8c-1.6-0.2-2.6-1.2-3.8-2c0.1-0.9-1.1-1.1-1-2
	c0.7,0.2,1.2,0.6,1.7,1c0.6,0.4,1.3,0.4,1.9,0.3c0.4,0,0.5-0.3,0.4-0.7c0-0.3,0-0.8-0.5-0.9c-0.4,0-0.2,0.4-0.4,0.6
	c-1.3-0.9-2.4-1.9-2.7-3.6c0-0.2-0.1-0.9-0.6-0.3c-0.1-1,0-2,0.5-2.9c0.3-0.1,0.4-0.2,0.4-0.5c0.5-1.8-0.1-3.2-1.3-4.6
	c-0.7-0.8-1.7-1.2-2.1-2.2C16,9.9,16.3,9.9,16.5,9.8z"/>
<path class="st1" d="M74.8,72c1.5,1.2,1.9,2.9,1.7,4.8c-0.4,0.8-0.6,1.7-1.2,2.4c-0.7-0.1-0.8,0.7-1.5,0.7c-1.5,0.3-2.9,0.3-4.3-0.4
	c-0.9-0.4-1.2-1.3-1.9-1.8c0.1-1.2,0.9-1.7,1.9-2.2c0.2,0.5,0.3,1.3,1,1.3c0.4,0,0.9-0.2,0.9-0.8c0.6-0.8-0.1-1.3-0.6-1.6
	c-0.8-0.4-1.7-0.5-2.2,0.5c-1.4,0.9-1.7,2.2-1.4,3.7c0,0-0.1,0-0.1,0c-1-0.4-2-0.5-3-0.4c-1.2,0-2.5,0.1-3.4,1.1c0,0,0,0,0,0
	c-0.1,0.1-0.2,0.2-0.3,0.3c-0.1,0.2-0.3,0.5-0.4,0.7c-0.4,0.1-0.7,0.2-0.7,0.7c-0.8,0.3-1,1-1.2,1.7c-0.3,0.5-0.5,1.1-0.4,1.7
	c0.1,0.9,0.7,1.7,1.6,1.9c0.8,0.2,1.2-0.6,1.3-1.4c0.3-0.4,0.3-0.8,0.3-1.2c0.2-0.1,0.2-0.3,0.2-0.5c0.2-0.4,0.4-0.8,0.5-1.2
	c0.1,0,0.2,0,0.3,0c0.1,0,0.1,0.1,0.2,0.1c0.6,0.1,1,1.3,1.6,0.9c0.5-0.4-0.2-1.2-0.2-1.9c0-0.2,0.1-0.5,0.1-0.7
	c0.4-0.1,0.8-0.1,1-0.6c0.7-0.1,1.4-0.1,2.1,0c1.5,0.7,2.8,1.6,3.4,3.3c-0.1,0.4,0.1,0.7,0.2,1c-0.1,0.8-0.1,1.6-0.2,2.4
	c-0.5,0.8-0.7,1.9-1.4,2.6c-0.3,0.2-0.7,0.5-1,0.7c-0.1-0.1-0.2-0.1-0.2,0l0,0c-0.2,0-0.4,0-0.5,0.2c-1.5-0.1-2.8,0.9-4.5,0.4
	c-2.4-0.7-4.2-1.9-5.6-3.8c-0.5-1.3-1.1-2.5-1.2-3.8c-0.1-0.9,0.2-1.8-0.2-2.7c-0.1-0.2-0.1-0.4-0.2-0.6c0-0.1,0-0.3,0-0.4
	c0.5-0.3,0.9-0.6,0.9-1.3c0.2-0.1,0.2-0.3,0.2-0.5c0.3-0.1,0.5-0.4,0.5-0.7c2.3-2.6,4.9-4.8,8.1-6c2.6-0.6,5.1-0.9,7.7,0.2
	C73.2,71.1,74,71.6,74.8,72z"/>
<path class="st2" d="M79.2,42.2c0.6-0.2,1.2-0.4,1.9-0.6c0.2,0.1,0.4,0,0.5-0.2c1.3-0.1,2.7-0.3,4,0.1c3.7,1,6.1,4.1,6.1,7.9
	c0,0.4,0,0.7,0,1.1c-0.3,0.9-0.7,1.9-1,2.8c-0.6,0.3-0.8,1.1-1.5,1.3c-0.4,0-0.8,0.1-1.2,0.3c-0.9,0.3-1.8,0.6-2.8,0.4
	c-1.7-0.3-2.8-1.4-3.7-2.8c-0.2-0.3-0.3-0.5-0.4,0c-0.1,0-0.1,0-0.2,0c0-2.3,0-2.3,2.3-2.7c0.4-0.1,0.7-0.2,0.5-0.7
	c0.7-0.7-0.7-0.9-0.4-1.5c0.5-0.8,1.5-0.9,2.2-1.3c0.5-0.3,1.1-0.6,1-1.3c0-0.2,0-0.4,0.1-0.5c0.8-0.3,0.2-0.7,0-0.9
	c-0.8-0.8-2.4-0.6-3.3,0.3l0,0c-0.3,0-0.5,0.1-0.6,0.4c-0.2,0.7-1.2,0.7-1.4,1.3c-0.2,0.3-0.3,0.5-0.3,0.8c-0.6,0.3-0.9,0.9-1,1.5
	c-0.3,1.6-0.3,3.1,0.6,4.6c0,0.3,0.1,0.6,0.1,0.9c-0.8,0.2-1.8-0.1-2.2,1.1c-0.3,0.2-0.7,0.3-0.8,0.8c0,0.2,0.1,0.3,0.3,0.3
	c0.8-0.4,1.5-0.9,2.3-1c1.2,0.2,1.9,1.1,2.4,2.2c1,2,0.4,3.9-0.5,5.7c-0.3,0.2-0.6,0.4-0.9,0.5c-0.2-0.2-0.4-0.1-0.6,0
	c-1.8,0.6-3.4,0.4-4.9-0.8c-1.6-1.2-2.4-2.9-3.1-4.7c-0.2-1.1-0.2-2.2-0.2-3.4c0-0.5,0.2-1-0.3-1.4c-0.1-0.1-0.2-0.3-0.2-0.4
	c0.5-1.8,1-3.6,2.3-5.1c0.3-0.4,0.7-0.8,0.8-1.4C76.1,44.3,77.6,43.2,79.2,42.2z M77.5,56.4c-0.1-0.2-0.1-0.7-0.5-0.4
	c-0.5,0.5-0.3,1.1-0.1,1.7c0.3,0.7,0.9,1,1.6,1c0.7,0,0.5-0.7,0.6-1.1c0.8-0.5,0.1-0.7-0.2-0.9C78.5,56.5,78,56.4,77.5,56.4z"/>
<path class="st3" d="M41.4,39.1c0-0.2,0.1-0.4,0.1-0.5c0.3,0,0.8,0,0.9-0.2c0.9-1.2,2.3-2.2,2.2-3.9c0.9-1.3,1.3-2.7,1.9-4.1
	c0.7,0.8,1.3,0.8,2.1,0c0.5-0.5,1-0.9,1.8-1.1c0.6-0.1,1-0.1,1.1,0.6c-0.3,0.3-0.7,0.6-1,0.9c-0.6,0.1-0.9,0.8-1.4,1
	c-0.7,0.1-1,0.6-1.3,1.1c-2.4,4.3-4.9,8.5-7.2,12.9c-0.6,1.1-1.6,2.1-1.6,3.5l0,0c-1.6,1.5-2.4,3.3-3.1,5.3c0,0.1,0,0.1,0,0.2
	c-1,0.4-1.1,1.3-1.4,2.2c0,0.1,0,0.1,0,0.2c-0.4,0-0.6,0.2-0.7,0.5c-0.9,1.6-1.9,3.1-2.8,4.6c-0.4,0.7-1.1,1.2-1,2.1
	c-1,0.7-2.1,1.1-3.3,1.3c-0.5,0.1-1,0.2-1.1,0.9c-0.3,0-0.4,0.3-0.5,0.5c-0.9,0.7-0.1,1.5,0,2.3c0,0.6,0.7,0.9,1.4,0.9
	c3.3,0,6.5-0.1,9.8,0.2c1.8,0.2,3.6-0.2,5.4-0.3c1.4-0.1,2.2-0.9,2.8-2.1c0.1-0.1,0.1-0.2,0.2-0.4c0.4-0.1,0.4-0.7,0.7-0.9
	c0.5,0.3,0.7,0.7,0.6,1.4c-0.5,2.5-1.9,3.6-4.4,3.6c-4.9,0-9.8,0-14.8,0c-2.2,0-3.3-0.6-3.7-2.2c-0.4-1.5,0.8-4.4,2.3-4.8
	c4-1,5.8-4.1,7.6-7.3c2.3-4,4.6-8.1,6.9-12.1c0.2-0.4,0.3-0.8,0.5-1.2c0.1-0.4,0-0.8-0.5-0.9c-3.5-0.7-6.5-2.4-9.6-4.1
	c-1.3-0.7-1.7-0.5-2.2,0.9c-1.3,3.5-4.7,4.6-7.8,2.6c-2.3-1.5-3.8-3.5-4.1-6.4c-0.1-0.9-0.6-1.4-1.5-1.2c-4.2,0.9-7.6-0.8-10.6-3.4
	c-3.1-2.7-4.8-6.2-4.4-10.4c0.3-3.5,1.8-6.4,4.5-8.8c1.3-1.1,2.6-2,4.4-1.7c-1.9,1.2-3.6,2.6-5.1,4.3c-0.5,0-0.5,0.4-0.5,0.7
	c-0.1,0.1-0.2,0.2-0.2,0.2c-0.6,0.4-1.1,0.9-1.2,1.7c0,0.2,0,0.5,0,0.7C1.3,18.7,1,18.8,1,18.9c-0.5,2.3-0.7,4.6,0.2,6.9
	c1.1,2.8,3,4.9,5.5,6.4c2.4,1.4,4.9,2.4,7.8,1.6c1.3-0.4,2.3-1.4,2.3-2.4c0-0.2,0-0.3,0.1-0.5c0.5,0,0.7-0.3,0.6-0.7
	c0.1-0.2,0.2-0.3,0.2-0.5c0.7-0.1,0.9,0.4,0.9,0.9c0,0.4-0.1,0.8-0.2,1.2c0,0,0,0,0,0c-0.7,0.3-1,0.7-0.7,1.4c0,0.2,0,0.3,0,0.5
	C17,34.2,17,34.9,17,35.6c0.3,2.3,1.3,4.2,3.2,5.6c1.8,1.4,3.9,1.6,5.5,0.3c0.3-0.2,0.9-0.4,0.4-1c0-0.6,0.9-0.7,0.7-1.3
	c1.9-2.1,0.9-5-1.2-5.4c0.1-0.2-0.7-0.4,0-0.5c0.3,0,0.4-0.2,0.5-0.4c0.9-0.2,1.6,0.5,2.4,0.7c0.5,1.4,0.3,3.2,1.9,3.9
	c1.8,0.8,3.4,2,5.3,2.7c1.6,0.5,3.2,0.9,5,0.8c0.5,0,0.9-0.3,0.9-0.9C41.5,39.7,41.5,39.4,41.4,39.1z"/>
<path class="st1" d="M2.6,16.2c0.1-0.1,0.2-0.2,0.2-0.2c0.3-0.1,0.5-0.4,0.5-0.7c1.5-1.7,3.2-3.1,5.1-4.3c1.5-0.5,3-1.2,4.7-1
	c0.1,0.5-0.2,0.8-0.5,1.1c-1.1,0.9-1.2,2.2-0.8,3.4c1.2,2.9,2.8,5.6,5.2,7.7c0.1,0.2,0.1,0.3,0.2,0.5c-0.4,0-0.7-0.2-1-0.3
	c-1.6-0.7-3.3-0.5-4.1,0.4c-0.8,0.7-1.5,1.4-1.1,2.6c0.4,1.2,1.1,2.1,2.4,2.4c0.8,0.2,1.6,0.2,1.8-1c0.2-0.2,0.2-0.4,0-0.7
	c-0.5-1-1.6-1.2-2.5-1.7c0.3-1,1.2-1,2-1.1c1.4,0.2,2,1.1,2.3,2.3c0.3,1.1,0.6,2.1,0.8,3.2c-0.2,0.2-0.2,0.5-0.2,0.7
	c-0.1,0.2-0.2,0.3-0.2,0.5c-0.2,0.1-0.3,0.1-0.5,0.2c-0.1,0-0.1,0-0.2,0.1l0,0c-3.2,0.9-6.1,0-8.8-1.7c-1.3-0.8-2.1-2-3.3-2.9
	c0-0.1,0-0.1-0.1-0.2c-1-1.7-1.9-3.5-2.1-5.6c-0.1-0.5,0.2-1.1-0.3-1.6c0-0.2,0-0.3,0-0.5C2.3,17.3,2.4,16.8,2.6,16.2z"/>
<path class="st2" d="M46.5,30.4c-0.6,1.4-1.1,2.8-1.9,4.1c-0.8,0.6-0.9,1.7-1.6,2.4c-1.6-4.2-3.2-8.4-4.8-12.5
	c1.1-0.1,2.2,0.1,3.2-0.2c0.7-0.2,1.2-0.4,1.1-1.2c0-0.2,0-0.3,0-0.5c0.2,0,0.4-0.1,0.4-0.3c-0.1-0.7-0.6-1.1-1.2-1.2
	c-0.5-0.1-1.3-0.5-1.6,0.3c-0.5,0.6,0.2,1.1,0,1.7c-1.7,0-2.9-0.8-3.5-2.4c-0.1-0.3-0.2-0.5-0.5-0.5c-0.1-1.2,1.1-1.6,1.5-2.6
	c2.4-0.7,6.4,1.7,7.8,4.3C46.7,24.6,47.1,27.4,46.5,30.4z"/>
<path class="st3" d="M64.8,70.5c-3.3,1.2-5.9,3.4-8.1,6c-0.5,0-0.5,0.4-0.5,0.7c0,0.2,0,0.4-0.2,0.5c-0.9,0-1,0.6-0.9,1.3
	c0,0.1,0,0.3,0,0.4c-0.1,0-0.2,0-0.3,0c-0.5,0-0.5,0.4-0.5,0.7c0,0.3,0,0.6,0,0.9c-0.9,0.4-0.9,1.1-0.5,1.9
	c-0.1,0.8-0.3,1.6-0.2,2.4c0,0.8-0.2,1.7,0.7,2.2c0,0.1,0,0.2,0,0.2c0,0.4,0.1,0.8,0.2,1.1c1.5,2.9,3.8,4.5,7,4.9
	c2.6,0.3,5.8-1.2,6.7-3.4c0-0.1,0-0.2,0-0.2c0.8-0.5,0.9-0.7,0.3-1.2l0,0c0.7-0.8,0.9-1.8,1.4-2.6c0.7,0.3,0.7,0.9,0.5,1.6
	c-1.5,6.5-8.1,9.1-13.6,5.5c-2.7-1.7-4.1-4.4-4.3-7.7c-0.2-4.8,1.4-8.8,4.9-12.1c0.3-0.3,0.8-0.6,0.6-1.1c-0.2-0.6-0.8-0.6-1.3-0.6
	c-2,0-3.9,0-5.9,0c-0.4,0-0.7,0-1.1,0c-1.8-0.3-2.7-1.1-2.7-2.5c-0.1-2.3,1.1-4.2,2.9-4.7c0.5-0.1,1.1,0,1.1-0.8
	c0-0.7-0.3-1.2-0.9-1.5c-0.6-0.3-1.3-0.6-1.9-0.6c-2.4-0.1-4.7-0.1-7.1,0c-1.1,0-1.8,0.5-1.6,1.8c-0.9-0.8-1.5-1.8-1.6-3.1
	c3.4,0.2,6.8,0.1,10.1,0.3c3,0.2,4.7,1.8,4.7,4.8c-0.9,0-1.9,0.1-2.8,0.1c-0.4-0.1-0.6,0.1-0.4,0.5c-0.1,0.1-0.1,0.2-0.2,0.4
	c-0.6-0.1-0.7,0.3-0.7,0.7c-1.1,1-0.8,2.7,0.5,3.2c0.6,0.2,1.2,0.3,1.7,0.3c3.5,0,6.9,0,10.4,0c0.6,0,1.4,0.1,1.7-0.7
	c0.6,0,1.1,0,1.7,0C64.8,70.3,64.8,70.4,64.8,70.5z"/>
<path class="st3" d="M90.6,53.4c0.3-0.9,0.7-1.9,1-2.8c1.2,2.1,0.1,4-0.9,5.7c-1.2,2.2-3.2,3.5-5.7,3.9c-1,0.1-1.4,0.7-1.5,1.5
	c-0.4,2.6-1.6,4.7-4,6c-0.8,0.5-1.3,1.3-1.7,2.1c-0.5,1-1.1,1.8-2.3,1.7c-0.4,0-0.6,0.2-0.7,0.5c-0.8-0.4-1.6-0.8-2.4-1.3
	c0-0.5,0.6-0.4,0.7-0.7c0.4,0,0.8,0,1.2,0c0,0.3,0.2,0.5,0.5,0.5c1.2,0,1.8-0.6,2.1-1.9c0-0.1,0-0.2,0-0.2c0.4-0.2,0.5-0.5,0.5-1
	c0.6-1.4,0.5-1.5-1-1.6c-1,0-2,0-2.9-0.7c0.1-1.2-1-1.6-1.6-2.4c-2.4-3.3-3.4-6.7-2.1-10.7c1.1-3.4,2.7-6.4,5.6-8.6
	c1.1-0.8,2.3-1.2,3.7-1.1c-1.6,1-3.2,2.1-4.4,3.6c-0.3,0-0.5,0.2-0.7,0.4c-1,1.4-2,2.7-2.7,4.3c-1.6,4-1.8,7.8,1,11.5
	c1.1,1.4,2.5,2.3,4.2,2.7c0.7,0.2,1.4,0,1.7,0.9c0.1,0.3,0.5,0.3,0.8,0.3c1.2-0.3,2.7-2,2.8-3.4c0.9-1.8,1.5-3.7,0.5-5.7
	c-0.5-1-1.1-1.9-2.4-2.2c-0.1-0.2-0.2-0.3-0.2-0.5c0.3-0.1,0.5-0.2,0.8-0.2c0.3,0,0.7,0,1-0.1c0.5,0.5,1.1,1,1.6,1.5
	c0.1,1.1,0.7,1.9,1.4,2.7c0.3,0.4,0.7,0.5,1.2,0.4C87.9,58,90.2,55.6,90.6,53.4z"/>
<path class="st3" d="M17,22.2c-2.4-2.1-4-4.8-5.2-7.7c-0.5-1.1-0.3-2.4,0.8-3.4c0.3-0.3,0.6-0.6,0.5-1.1c0.6-0.3,1.3-0.5,1.9-0.8
	c0.6-0.3,1.2-0.2,1.5,0.6C16.3,9.9,16,9.9,15.7,10c-0.4-0.1-0.8-0.2-1.1,0.2c-0.2,0.1-0.3,0.3,0,0.5c0,0.4,0.1,0.7,0.3,1
	c0.7,0.7,1.6,0.6,2.5,0.9c0.4,0.3,0.7,0.7,0.8,1.2c-0.7,0.5-0.3,1.3-0.4,2c0,0.2,0,0.3,0,0.5c-0.2,0-0.4,0-0.5,0
	c0-1.9-0.6-2.8-2.1-3.3c-0.5-0.1-1-0.3-1.3,0.4c-0.4,0.1-0.6,0.2-0.2,0.5c0.1,2.1,0.8,3.9,2.6,5.1c0.4,0.4,0.8,0.9,1.2,1.3
	c0,0.6,0,1.3,0,1.9C17.3,22.2,17.2,22.2,17,22.2z"/>
<path class="st3" d="M75.4,79.2c0.6-0.7,0.8-1.6,1.2-2.4c0.7,2.1,0,3.9-1.3,5.5c-0.5,0.5-1,1-1.6,1.5c-1.1,1-2.4,0.7-3.6,0.2
	c-0.1-0.3-0.3-0.6-0.2-1c1-0.6,0.2-1.1-0.1-1.6c-0.3-0.7-1.2-1-1.3-1.8c0.6,0.3,1.2,0.5,1.9,0.8c0.2,0.7,0.8,1,1.3,1.5
	c0.3,0.3,0.5,0.4,0.9,0.2C73.7,81.4,74.8,80.6,75.4,79.2z"/>
<path class="st4" d="M42.4,23c0.1,0.8-0.4,1.1-1.1,1.2c-1.1,0.3-2.2,0-3.2,0.2c-0.2,0-0.5,0-0.7,0.1C36,23,35.1,21.3,35,19.3
	c0-1.3,0.9-1.9,2.5-1.8c-0.4,0.9-1.7,1.3-1.5,2.6c0,1.2,0.5,2.1,1.3,2.8c1,0.9,2,1.2,2.7,0.1c0.3-0.6-0.4-1.1,0-1.7
	c0.2,0,0.3,0.1,0.5,0.1C40.4,22.8,41.7,22.6,42.4,23z"/>
<path class="st5" d="M37.4,24.4c0.2,0,0.5,0,0.7-0.1c1.6,4.2,3.2,8.4,4.8,12.5c-0.3,0.7-0.6,0.4-0.7,0c-0.3-0.7-0.5-1.5-1-2.1
	c-0.2-1.6-1.1-3-1.6-4.4C39,28.3,38.2,26.4,37.4,24.4z"/>
<path class="st6" d="M41.2,34.7c0.4,0.7,0.7,1.4,1,2.1c0.2,0.5,0.5,0.7,0.7,0c0.7-0.7,0.8-1.8,1.6-2.4c0.1,1.8-1.3,2.7-2.2,3.9
	c-0.1,0.2-0.6,0.1-0.9,0.2c-0.3-1.3-0.9-2.5-1-3.8C40.7,34.7,41,34.7,41.2,34.7z"/>
<path class="st3" d="M43.9,65.6c-1.5,0-2.9-0.5-3.9-1.6c0.6-0.1,1.1,0,1.6,0.3c0.6,0.3,1.1,0.7,1.9,0.7
	C43.8,64.9,43.9,65.3,43.9,65.6z"/>
<path class="st3" d="M81.6,41.4c-0.1,0.2-0.3,0.2-0.5,0.2C81.2,41.3,81.3,41.1,81.6,41.4z"/>
<path class="st7" d="M77.5,67.3c0.1,0.4-0.1,0.8-0.5,1c-0.3,0.1-0.7,0.1-0.9,0.2c-0.9,0.8-2,0.7-3.1,0.7c-0.7,0-1.3-0.2-2,0.2
	c-1.9,0-3.8,0-5.8,0c-1.2,0-2.3,0-3.5,0c-1.6,0-3.3-0.3-4.9,0.1c-2.2,0.7-4.3,0-6.5-0.2c-0.2,0-0.5-0.3-0.6-0.5
	c-0.3-0.4-0.6-0.6-1.1-0.7c0-0.3,0-0.6,0-0.9c0-0.5,0.1-0.8,0.7-0.7c-0.2,0.9,0.2,1.3,1.2,1.2c2.4-0.1,4.8,0.3,7.3,0.1
	c2.5-0.2,5-0.1,7.5,0.1c3.6,0.3,7.2-0.3,10.7-0.2C76.6,67.9,76.9,67.4,77.5,67.3z"/>
<path class="st7" d="M36,54.9c0-0.1,0-0.1,0-0.2c1.5-1.5,2.3-3.4,3.1-5.3c0,0,0,0,0,0c1.3-1.3,1.9-3.1,2.8-4.6
	c1.4-2.4,2.6-4.8,3.9-7.2c1.1-1.9,2.2-3.8,3.3-5.7c0.5-0.2,0.7-0.9,1.4-1c-1.4,2.5-2.8,5.1-4.2,7.6c-3.5,6.2-7.1,12.5-10.6,18.7
	c-1.2,2-2.4,4.1-3.9,5.9c-0.2,0.2-0.4,0.4-0.6,0.5c0.2-0.8,0.7-1.5,1.1-2.2c0.8-1.3,1.8-2.6,2.3-4.1c0-0.1,0-0.1,0-0.2
	C35.3,56.5,35.7,55.8,36,54.9z"/>
<path class="st8" d="M47.2,55.7c-2.2,0-4.4,0-6.7,0c0-0.4-0.1-0.8,0.1-1.1c0.7-1.4,1.5-2.9,2.3-4.3c0.7-1.1,1.4-1,2,0.2
	c0.6,1.1,1,2.3,1.7,3.3C47.1,54.5,47.3,55,47.2,55.7z"/>
<path class="st6" d="M47.2,55.7c0.1-0.7-0.1-1.3-0.5-1.9c-0.7-1-1.1-2.2-1.7-3.3c-0.6-1.2-1.3-1.3-2-0.2c-0.9,1.4-1.6,2.8-2.3,4.3
	c-0.1,0.3-0.1,0.7-0.1,1.1c-0.6,0.1-1.5,0.3-1.8-0.1c-0.4-0.5,0.4-1,0.6-1.5c0.2-0.5,0.5-0.9,0.7-1.4c0.3-0.1,0.5-0.2,0.4-0.6
	c0.8-1.4,1.5-2.8,2.3-4.2c1.4-0.6,1.9-0.4,2.8,1c1.5,2.4,2.4,5.2,4.9,6.9C49.3,55.8,48.3,55.8,47.2,55.7z"/>
<path class="st9" d="M50.3,55.8c-2.5-1.7-3.4-4.5-4.9-6.9c-0.8-1.3-1.4-1.6-2.8-1c0.5-1.5,1.4-2.7,2.1-3.9c1.9,4.1,3.5,8.3,7,11.7
	C51.2,55.9,50.8,55.9,50.3,55.8z"/>
<path class="st10" d="M39.6,57.9c2.5,0,5,0,7.5,0.1c0.4,0,0.9,0.1,1.3,0.1c0.1,0.8,0.8,0.9,1.4,1.2c0.7,0.3,1.5,0.4,1.7,1.3
	c-0.2,0-0.3,0-0.5,0c-0.1,0-0.2,0-0.2,0c-0.2-0.6-0.6-0.7-1.2-0.5c-0.2,0-0.3,0-0.5,0c-0.1-0.7-0.6-0.7-1.1-0.7c-2.3,0-4.6,0-6.9,0
	c-0.9,0-1.9-0.1-2.5-1c0.3,0,0.7,0,0.7-0.4C39.4,58,39.5,58,39.6,57.9z"/>
<path class="st11" d="M44.6,67.7c-0.1,0.1-0.1,0.2-0.2,0.4c-0.3,0-0.6,0-1,0c-0.5-0.4-1.1-0.2-1.6-0.1c-2,0.2-4,0.6-5.9,0.4
	c-2.8-0.3-5.7-0.2-8.5-0.2c-0.6,0-1.1-0.5-1.7,0c-0.6-0.1-0.4-0.6-0.5-0.9c0.1-0.2,0.2-0.5,0.5-0.5c0.1,0.1,0.2,0.2,0.3,0.2
	c0.1,0.7,0.6,0.5,1,0.5c5.7,0,11.5,0,17.2,0C44.3,67.5,44.4,67.6,44.6,67.7z"/>
<path class="st9" d="M66.8,65.7c-3.2,0.2-6.3,0.2-9.5,0.2c-0.3,0-0.7,0-0.7-0.4c0-0.4,0.2-0.6,0.5-0.8c0.2-0.1,0.5-0.1,0.7-0.1
	c2.5,0,4.9,0,7.4,0.1C65.9,64.6,66.5,64.9,66.8,65.7z"/>
<path class="st12" d="M47.8,44.9c3.4-0.2,6.8,0.5,8.8,1.9c-1.1,0.3-2.1,0.1-3.1,0.1c-1.1,0-2.2,0-3.2,0
	C48.7,46.9,48.2,46.5,47.8,44.9z"/>
<path class="st12" d="M60.3,53.4c-2.6,0-4.9,0.1-7.3-0.1c-1.2-0.1-1.4-1.1-1.9-2C54.2,52,57.4,51.3,60.3,53.4z"/>
<path class="st13" d="M50,67c8.7,0,17.4,0,26.1,0c0,0.1,0,0.2,0,0.2c-8.7,0-17.4,0-26.1,0C50,67.1,50,67.1,50,67z"/>
<path class="st12" d="M63.9,59.9c-2.6,0-5,0.1-7.4,0c-1.2,0-1.4-1.1-1.8-2.1C57.7,58.6,60.9,57.7,63.9,59.9z"/>
<path class="st4" d="M50.8,60.6c0.1,0,0.2,0,0.2,0c0.1,0.6,0.4,0.9,1,1c0,0.2,0.1,0.4,0.2,0.5c0,0.3,0.2,0.5,0.5,0.5
	c0.1,0.4-0.2,0.9,0.5,0.9c0.1,0.1,0.2,0.2,0.2,0.2c0,0.6,0,1.1,0,1.7c-0.2,0.3-0.5,0.3-0.7,0.2c0-3.1-1.7-4.6-4.7-4.8
	c-3.4-0.2-6.8-0.1-10.1-0.3c-0.1-0.3-0.1-0.6-0.2-0.9c2,0.3,4.1,0.2,6.1,0.3c1.8,0.1,3.6,0.1,5.3,0.1c0.2,0,0.3,0,0.5,0
	C50,60.5,50.4,60.7,50.8,60.6z"/>
<path class="st13" d="M44.1,67.4c-5.7,0-11.5,0-17.2,0c-0.4,0-0.9,0.2-1-0.5c5.7,0,11.4,0,17.1,0C43.4,66.9,44,66.6,44.1,67.4z"/>
<path class="st7" d="M53.5,63.8c-0.1-0.1-0.2-0.2-0.2-0.2c0-0.2,0-0.5,0-0.7c0-0.3,0-0.7-0.5-0.7l0,0c0-0.5-0.1-0.9-0.7-1
	c-0.2-0.2-0.3-0.3-0.5-0.5c-0.2-0.9-1.1-1-1.7-1.3c-0.6-0.3-1.3-0.4-1.4-1.2c0.2,0,0.5,0,0.7-0.1c0.1,0.3,0.1,0.6,0.5,0.2
	c0.2,0,0.3,0,0.5,0c1,0.8,2.1,1.4,3.2,2.1c0.3,0.5,0.6,1,0.9,1.5c0,0.2,0,0.3,0,0.5c-0.2,1,0.6,1.8,0.8,2.7
	c-0.1,0.1-0.3,0.1-0.4,0.2C53.9,65,54.4,63.8,53.5,63.8z"/>
<path class="st14" d="M49.2,60.2c-1.8-0.1-3.6-0.1-5.3-0.1c-2-0.1-4.1,0-6.1-0.3c-0.2-0.4-0.1-0.9,0-1.3c0.3,0,0.6,0.1,0.9,0.1
	c0.6,0.9,1.6,0.9,2.5,1c2.3,0,4.6,0,6.9,0C48.6,59.4,49.1,59.4,49.2,60.2z"/>
<path class="st5" d="M49.9,48.8c-0.2,0-0.4-0.1-0.4-0.3c0-0.4,0.3-0.3,0.5-0.3c1.1,0,2.1,0.1,3.2,0.2c0.6,0.1,1.2,0.2,1.7-0.1
	c0.1,0,0.3,0,0.4,0c0.6,0.7,1.5,0.4,2.2,0.7c0.1,0,0.1,0.1,0.2,0.1c-0.1,0.5,0.5,0.6,0.7,0.9c-1,0.3-1.9,0.2-2.8,0.1
	c-0.4-0.7-1-0.9-1.7-1C52.6,49,51.2,48.9,49.9,48.8z"/>
<path class="st5" d="M53.1,55.1c-0.2-0.1-0.4-0.2-0.3-0.4c0-0.2,0.2-0.3,0.5-0.3c2.2,0.2,4.4,0.5,6.6,0.7c0.9,0.1,1.5,0.7,2.2,1.3
	c-0.6,0.5-1.1,0.3-1.7,0.2c0-0.3-0.2-0.3-0.4-0.3C57.8,55.4,55.4,55.3,53.1,55.1z"/>
<path class="st13" d="M53.2,58c-1.1-0.6-2.3-0.7-3.4-0.7c-3.4-0.1-6.8,0-10.3,0c-0.2,0-0.4,0-0.7-0.1c0.1-0.6,0.6-0.5,0.9-0.5
	c3.8,0,7.6,0,11.4,0C52,56.8,53,56.9,53.2,58C53.3,58,53.2,58,53.2,58z"/>
<path class="st10" d="M53.1,55.1c2.3,0.2,4.6,0.3,6.8,1.2c0.2,0.1,0.4,0.1,0.4,0.3c-1.5,0.2-3-0.1-4.5,0
	C54.6,56.7,53.8,56.2,53.1,55.1z"/>
<path class="st7" d="M52.6,39.9c-0.3,0.5-0.3,0.5-0.9,0.5c-1.1,0-2.2-0.1-3.2-0.1c-1.7,0-1.7,0-0.9-1.5
	C49.3,38.8,50.9,39.6,52.6,39.9z"/>
<path class="st10" d="M49.9,48.8c1.4,0.1,2.7,0.2,4.1,0.3c0.7,0.1,1.3,0.3,1.7,1c-1.4,0-2.9,0-4.3,0C50.5,50.1,50,49.6,49.9,48.8z"
	/>
<path class="st14" d="M63.7,63.1c-1.9,0-3.8,0-5.7,0c-1,0-1.1-0.6-1.2-1.3c0.6,0,1.1,0.5,1.7,0c0.8,0,1.6,0.1,2.4,0.1
	c0,0.5,0.3,0.7,0.8,0.6C62.2,63.2,63.2,62.4,63.7,63.1z"/>
<path class="st6" d="M34.5,57.3c-0.5,1.5-1.5,2.7-2.3,4.1c-0.4,0.7-0.9,1.4-1.1,2.2c-0.3,0.4-0.7,0.7-1.2,0.9
	c-0.1-0.9,0.6-1.4,1-2.1c0.9-1.6,1.9-3.1,2.8-4.6C34,57.5,34.2,57.3,34.5,57.3z"/>
<path class="st14" d="M52.5,43.6c-1.5,0-2.9,0-4.4,0c-0.8,0-1.4-0.2-1.7-1c0.5-0.1,1.1,0.2,1.5-0.5c0.2,0,0.3,0,0.5,0
	c0.1,0.3,0.3,0.4,0.6,0.4C50.3,42.7,51.4,43.3,52.5,43.6z"/>
<path class="st1" d="M35.5,65.6c-1.6,0-3.1,0-4.8,0C32.2,64.1,34,64.1,35.5,65.6z"/>
<path class="st15" d="M48.4,42.2c-0.2,0-0.3,0-0.5,0c0-0.2,0-0.3,0-0.5c0.7,0,1.5-0.1,2.2-0.1c0.2,0,0.5,0,0.7,0
	c0.4,0.4,0.8,0.3,1.2,0c0.2,0,0.4,0,0.7,0c0.1,0.6,0.6,0.4,1,0.4c0.2,0.1,0.3,0.2,0.5,0.3c0,0.3,0,0.5,0,0.8c-0.5,0.2-1,0-1.4-0.3
	C51.5,42.1,50,42.1,48.4,42.2z"/>
<path class="st15" d="M52.6,39.9c-1.7-0.3-3.3-1.1-5-1.1c0.2-0.7,0.7-0.5,1.2-0.5c1.2,0.1,2.5-0.2,3.6,0.8
	C52.4,39.4,52.5,39.6,52.6,39.9z"/>
<path class="st7" d="M48.4,42.2c1.6-0.1,3.1-0.1,4.5,0.8c0.4,0.2,0.9,0.5,1.4,0.3c0.1,0,0.4,0.1,0.4,0.2c0.1,0.2-0.1,0.2-0.3,0.2
	c-0.6,0-1.2,0-1.9,0c-1.2-0.3-2.3-0.9-3.5-1C48.8,42.6,48.5,42.6,48.4,42.2z"/>
<path class="st13" d="M58.8,61.1c0.1-0.4,0.4-0.4,0.7-0.4c1.4,0,2.8-0.1,4.2,0c0.6,0,1.6,0.1,1.3,1.2c-0.1,0-0.1,0-0.2,0
	c-0.8-0.8-1.9-0.7-2.9-0.7C60.8,61.1,59.8,61.1,58.8,61.1z"/>
<path class="st5" d="M53.3,60.4c-1.1-0.6-2.2-1.2-3.2-2.1c0-0.1,0-0.2,0-0.3c0.4,0,0.8,0,1.2,0c0.1,0.5,0.4,0.5,0.8,0.4
	c0.4,0.1,0.7,0.3,0.7,0.7c0,0.3,0.1,0.5,0.4,0.5C53.2,59.9,53.3,60.1,53.3,60.4z"/>
<path class="st15" d="M58.8,61.1c1,0,2.1,0.1,3.1,0.1c0,0.2,0,0.4,0,0.6c-0.1,0-0.2,0.1-0.3,0.1c-0.2,0-0.5,0-0.7,0
	c-0.8,0-1.6-0.1-2.4-0.1c-0.3-0.2-0.7-0.4-1-0.5C57.9,60.9,58.4,61.2,58.8,61.1z"/>
<path class="st9" d="M61.6,61.9c0.1,0,0.2-0.1,0.3-0.1c0.2,0,0.5,0,0.7,0c0.8,0.4,1.4,1.2,2.4,0.8c0.2,0.1,0.3,0.2,0.5,0.2
	c0,0.1,0,0.2,0,0.4c-0.6,0.1-1.2,0.1-1.7-0.1c-0.5-0.7-1.5,0.1-2.1-0.6C61.6,62.3,61.6,62.1,61.6,61.9z"/>
<path class="st13" d="M52.3,39.1c-1-0.9-2.4-0.6-3.6-0.8c0.8-0.8,3.2-0.6,3.7,0.4C52.5,38.8,52.4,39,52.3,39.1z"/>
<path class="st13" d="M52.7,41.7c-0.2,0-0.4,0-0.7,0c-0.4-0.4-0.8-0.4-1.2,0c-0.2,0-0.5,0-0.7,0c1-0.9,2.1-0.4,3.2-0.4
	c0.6,0,1,0.5,0.9,1.2c-0.2-0.1-0.3-0.2-0.5-0.3C53.5,41.7,53.2,41.6,52.7,41.7z"/>
<path class="st15" d="M65,62.6c-1,0.4-1.6-0.4-2.4-0.8c0.7-0.5,1.4,0.3,2.1,0c0.1,0,0.1,0,0.2,0C65,62.1,65,62.3,65,62.6z"/>
<path class="st7" d="M47.9,41.7c0,0.2,0,0.3,0,0.5c-0.3,0.6-1,0.3-1.5,0.5c0,0,0,0,0,0c0-0.1,0-0.2,0-0.3c-0.1,0.1-0.1,0.2-0.2,0.2
	c-0.4-0.4-0.9-0.9,0.2-0.9c0.2,0.3,0.5,0.3,0.7,0.1C47.5,41.7,47.7,41.7,47.9,41.7z"/>
<path class="st2" d="M50.6,36.6c0.2,0.1,0.3,0.2,0.8,0.5c-0.7,0-1.2,0-1.6,0c-0.4,0-0.9,0.3-1-0.3c-0.1-0.5,0.3-0.8,0.8-0.9
	C49.6,36.7,50.1,36.7,50.6,36.6z"/>
<path class="st13" d="M55.3,48.2c-0.1,0-0.3,0-0.4,0c0.3-1,1.1-0.5,1.7-0.5c0.5,0,1,0.2,1,0.9c0,0,0,0,0,0
	C56.9,48.2,56.1,48,55.3,48.2z"/>
<path class="st5" d="M55,65c-0.1-0.9-1-1.7-0.8-2.7c0.2,0.2,0.3,0.3,0.5,0.5c0.1,0.2,0.1,0.3,0.2,0.5c-0.1,0.5,0.1,0.9,0.7,1
	C55.6,64.7,55.2,64.8,55,65z"/>
<path class="st13" d="M55.9,45.3c-0.8-0.2-1.5-0.7-2.4-0.5C54.7,44.1,55.3,44.2,55.9,45.3L55.9,45.3z"/>
<path class="st10" d="M53.5,63.8c0.9,0.1,0.4,1.2,1.1,1.5c-0.3,0.3-0.7,0.2-1.1,0.2C53.5,64.9,53.5,64.3,53.5,63.8z"/>
<path class="st9" d="M57.5,61.3c0.3,0.2,0.7,0.4,1,0.5c-0.5,0.5-1.1,0-1.7,0c-0.1-0.2-0.3-0.4-0.2-0.6C57,60.9,57.2,61.5,57.5,61.3z
	"/>
<path class="st15" d="M50.6,36.6c-0.5,0.1-1,0-1-0.6c0-0.3-0.1-0.6,0.2-1C50.1,35.6,50.4,36.1,50.6,36.6z"/>
<path class="st15" d="M38.8,57.3c0.2,0,0.4,0,0.7,0.1c0,0.2,0,0.4,0.1,0.6c-0.1,0-0.2,0.1-0.2,0.1c-0.5-0.1-1-0.2-1.5-0.3
	C38,57.1,38.5,57.3,38.8,57.3z"/>
<path class="st13" d="M63,58c-0.8,0-1.6-0.4-2.5-0.4C61.3,57.6,62.2,57.2,63,58z"/>
<path class="st13" d="M57.1,51.1c1.6-0.1,1.6-0.1,2.4,0.5C58.6,51.5,57.9,51.2,57.1,51.1z"/>
<path class="st7" d="M37.9,57.7c0.5,0.1,1,0.2,1.5,0.3c-0.1,0.4-0.4,0.4-0.7,0.4c-0.3,0-0.6-0.1-0.9-0.1
	C37.8,58.1,37.8,57.9,37.9,57.7z"/>
<path class="st15" d="M55.6,64.3c-0.6-0.1-0.7-0.5-0.7-1C55.5,63.4,55.9,63.6,55.6,64.3z"/>
<path class="st15" d="M52.1,58.5c-0.3,0-0.7,0-0.8-0.4C51.7,58,52,58,52.1,58.5z"/>
<path class="st15" d="M47.2,41.7C47,42,46.7,42,46.5,41.7C46.8,41.4,47,41.4,47.2,41.7z"/>
<path class="st13" d="M49.4,51.3c-0.4-0.2-0.5-0.6-0.5-1l0,0C49.4,50.5,49.4,50.9,49.4,51.3C49.4,51.3,49.4,51.3,49.4,51.3z"/>
<path class="st15" d="M54.7,62.8c-0.2-0.2-0.3-0.3-0.5-0.5c0-0.2,0-0.3,0-0.5C54.8,61.9,54.7,62.4,54.7,62.8z"/>
<path class="st13" d="M54.9,61.1c0.3,0.1,0.5,0.4,0.4,0.8C54.8,61.9,55,61.4,54.9,61.1L54.9,61.1z"/>
<path class="st13" d="M50.6,53.1c-0.1,0.2-0.2,0.2-0.3,0.1c-0.1-0.1-0.1-0.2-0.1-0.3c0.1,0,0.2-0.1,0.3-0.1
	C50.5,52.9,50.6,53.1,50.6,53.1z"/>
<path class="st13" d="M53.5,58.5c0.2,0.1,0.4,0.2,0.4,0.5c0,0-0.1,0.1-0.2,0.1C53.4,59,53.5,58.7,53.5,58.5L53.5,58.5z"/>
<path class="st15" d="M50.1,58c0,0.1,0,0.2,0,0.3c-0.2,0-0.3,0-0.5,0c0-0.1,0-0.2,0-0.3C49.8,57.7,50,57.8,50.1,58z"/>
<path class="st5" d="M49.6,58c0,0.1,0,0.2,0,0.3c-0.3,0.3-0.4,0.1-0.5-0.2C49.3,58,49.5,58,49.6,58z"/>
<path class="st5" d="M65.5,63.2c0-0.1,0-0.2,0-0.4c0.2,0,0.4,0,0.4,0.3C65.8,63.2,65.6,63.2,65.5,63.2z"/>
<path class="st13" d="M46.3,45.4c0,0.1,0.1,0.1,0.1,0.2c-0.1,0-0.1,0.1-0.2,0.1c0-0.1-0.1-0.1-0.1-0.2
	C46.1,45.4,46.2,45.4,46.3,45.4z"/>
<path class="st2" d="M40.4,52.2c0.1,0.3,0,0.5-0.4,0.6C40,52.5,40.2,52.3,40.4,52.2z"/>
<path class="st7" d="M49.5,66.3c-0.2-0.4,0-0.6,0.4-0.5C49.8,65.9,49.7,66.1,49.5,66.3z"/>
<path class="st15" d="M53.2,59.7c-0.3,0-0.5-0.2-0.4-0.5C53.1,59.2,53.2,59.4,53.2,59.7z"/>
<path class="st13" d="M49.6,51.8c-0.2-0.1-0.2-0.3-0.2-0.5c0,0,0,0,0,0C49.6,51.4,49.6,51.6,49.6,51.8L49.6,51.8z"/>
<path class="st13" d="M47.7,48.2c-0.1-0.1-0.1-0.2-0.2-0.3c0,0,0.1,0,0.1-0.1C47.7,47.9,47.7,48,47.7,48.2
	C47.7,48.2,47.7,48.2,47.7,48.2z"/>
<path class="st13" d="M47.2,46.9C47.2,47,47.2,47,47.2,46.9c-0.1,0.1-0.1,0-0.1,0C47.1,46.9,47.1,46.9,47.2,46.9
	C47.1,46.9,47.2,46.9,47.2,46.9z"/>
<path class="st13" d="M48,48.6c-0.2-0.1-0.2-0.3-0.2-0.5c0,0,0,0,0,0C47.9,48.3,48,48.4,48,48.6C48,48.6,48,48.6,48,48.6z"/>
<path class="st14" d="M46.3,42.6c0.1-0.1,0.1-0.2,0.2-0.2c0,0.1,0,0.2,0,0.3C46.4,42.7,46.3,42.7,46.3,42.6z"/>
<path class="st13" d="M48.2,49.1C48,49,48,48.8,48,48.6c0,0,0,0,0,0C48.2,48.7,48.2,48.9,48.2,49.1L48.2,49.1z"/>
<path class="st13" d="M53.5,58.5c-0.2-0.1-0.2-0.3-0.2-0.5c0,0,0,0,0,0C53.4,58.1,53.5,58.3,53.5,58.5
	C53.5,58.5,53.5,58.5,53.5,58.5z"/>
<path class="st13" d="M54.9,61.1c-0.1-0.1-0.1-0.2-0.2-0.3c0,0,0.1,0,0.1-0.1C54.9,60.9,54.9,61,54.9,61.1
	C54.9,61.1,54.9,61.1,54.9,61.1z"/>
<path class="st13" d="M46.7,46.2C46.7,46.3,46.7,46.3,46.7,46.2c-0.1,0.1-0.1,0-0.1,0C46.6,46.2,46.6,46.2,46.7,46.2
	C46.7,46.2,46.7,46.2,46.7,46.2z"/>
<path class="st13" d="M57.7,49c-0.1,0-0.1,0-0.2-0.1c0-0.1,0-0.2,0-0.3c0,0,0,0,0,0C57.8,48.7,58,48.7,57.7,49z"/>
<path class="st13" d="M48.9,50.3c-0.1-0.1-0.1-0.2-0.2-0.3c0,0,0.1,0,0.1-0.1C48.9,50.1,48.9,50.2,48.9,50.3
	C48.9,50.3,48.9,50.3,48.9,50.3z"/>
<path class="st13" d="M55.9,45.3c0,0,0.1,0.1,0.1,0.1C55.9,45.4,55.9,45.3,55.9,45.3C55.9,45.3,55.9,45.3,55.9,45.3z"/>
<path class="st13" d="M49.7,51.7c0,0,0.1,0.1,0.1,0.1C49.7,51.8,49.7,51.8,49.7,51.7C49.6,51.8,49.7,51.7,49.7,51.7z"/>
<path class="st13" d="M48.2,49.1c0,0,0.1,0.1,0.1,0.1C48.3,49.2,48.2,49.2,48.2,49.1C48.2,49.1,48.2,49.1,48.2,49.1z"/>
<path class="st14" d="M17.7,16.2c0-0.2,0-0.3,0-0.5c0.7,0,0.3-0.8,0.8-1c0.6,0.8,0.4,1.6,0.2,2.4c-0.5,0.9-0.6,1.9-0.5,2.9
	c0.1,1.7,0.9,3.1,2.3,4c0.4,0.2,0.7,0.5,0.9-0.2c0.2-0.2,0-0.7,0.4-0.6c0.5,0,0.4,0.5,0.5,0.9c0.1,0.4,0,0.6-0.4,0.7
	c-0.7,0.1-1.3,0.1-1.9-0.3c-0.5-0.4-1.1-0.9-1.7-1c-0.1-0.2-0.3-0.4-0.2-0.6c0-0.3-0.1-0.6-0.4-0.6c0-0.6,0-1.3,0-1.9
	c0.2-0.1,0.3-0.3,0.2-0.5c-0.3-1-0.3-2,0.2-2.9C18,16.6,18,16.4,17.7,16.2z"/>
<path class="st15" d="M23,27.5c7.3-0.9,11.4,3.8,15.4,8.8c0,0.1,0,0.2,0,0.3c-0.4-0.2-0.5-0.7-0.9-0.8l0,0c-0.2-0.8-0.9-1.2-1.4-1.8
	c0-0.1,0-0.1-0.1-0.1c-0.1-0.1-0.2-0.2-0.4-0.4c0-0.1,0-0.1-0.1-0.1c-0.1-0.1-0.2-0.2-0.4-0.4c0-0.1,0-0.1-0.1-0.1
	c-0.7-0.7-1.4-1.5-2.2-2c-1.7-1.5-3.6-2.4-5.7-2.9c-1.3-0.3-2.6,0-3.9-0.2C23,27.8,23,27.7,23,27.5z"/>
<path class="st15" d="M18.7,17.2c0.2-0.8,0.4-1.7-0.2-2.4c0-0.4-0.2-0.7-0.4-1c-0.1-0.5-0.4-0.9-0.8-1.2c-0.4-0.5-0.8-1-1.5-1.2
	c-0.2-0.4-0.6-0.7-1-0.9c-0.1-0.1-0.1-0.2-0.2-0.2c0.3-0.5,0.7-0.4,1.1-0.2c0.5,1,1.5,1.4,2.1,2.2c1.2,1.3,1.8,2.8,1.3,4.6
	C19.1,17,19,17.1,18.7,17.2z"/>
<path class="st15" d="M17.9,22.9c-0.1,0.3,0.2,0.4,0.2,0.6c-0.1,0.9,1.1,1.1,1,2c0,0.1,0,0.3-0.1,0.4c-0.1,0-0.2,0-0.2,0
	c-0.2-0.2-0.3-0.6-0.7-0.6c-0.6-1.6-1.8-2.4-3.4-2.6c-0.9-0.5-1.8,0.1-2.7,0.1c0.8-1,2.5-1.2,4.1-0.4c0.3,0.1,0.6,0.4,1,0.3
	C17.5,22.8,17.7,22.8,17.9,22.9z"/>
<path class="st15" d="M21.4,23.9c-0.2,0.6-0.5,0.4-0.9,0.2c-1.5-0.9-2.2-2.3-2.3-4c0.5-0.6,0.5,0,0.6,0.3
	C19.1,22,20.1,23.1,21.4,23.9z"/>
<path class="st11" d="M38.3,36.7c0-0.1,0-0.2,0-0.3c0.8,0.4,1.4,1.1,1.9,1.9c0.3,0.4,0.6,0.8,1,0.9c0.1,0.3,0.2,0.6,0.2,1
	c-0.1,0-0.2-0.1-0.4-0.1c-0.5-0.6-1-1.3-1.8-1.7C39.3,37.6,38.7,37.2,38.3,36.7z"/>
<path class="st11" d="M19.1,25.9c0-0.1,0-0.3,0.1-0.4c1.2,0.8,2.3,1.9,3.8,2c0,0.2,0,0.3,0,0.5c-0.2,0-0.5,0-0.7,0
	C21,27.6,19.9,27,19.1,25.9z"/>
<path class="st14" d="M68.1,90.2c0,0.1,0,0.2,0,0.2c-0.7,0.1-1,0.6-1.4,1.1c-0.9,0.9-2,1.4-3.2,1.5c-3.8,0.4-6.6-0.8-8.5-4.3
	c-0.2-0.4-0.2-0.9-0.8-0.9c0-0.1,0-0.2,0-0.2c-0.1-0.8,0.1-1.6-0.7-2.2c-0.1-0.8,0.1-1.6,0.2-2.4c0.4-0.6,0.2-1.3,0.5-1.9
	c0-0.3,0-0.6,0-0.9c0.5,0,0.5-0.4,0.5-0.7c0.1,0,0.2,0,0.3,0c0.1,0.2,0.1,0.4,0.2,0.6c-0.4,0.5-0.1,1.2-0.3,1.8
	c-0.5,0.1-0.4,0.5-0.4,0.9c-0.4,4.3,3.4,10.2,9.5,9.2c1-0.2,2.2-0.2,2.7-1.5l0,0.1c0,0,0-0.1,0-0.1c0.4,0.1,0.5-0.1,0.5-0.4
	c0-0.1,0-0.1,0-0.2c0,0,0,0,0,0c0.1,0,0.2,0,0.2,0c0.3-0.2,0.7-0.5,1-0.7c0,0,0,0,0,0C68.3,89.4,68.2,89.8,68.1,90.2z"/>
<path class="st3" d="M60.4,84.9c-0.1,0.8-0.5,1.5-1.3,1.4c-0.9-0.2-1.5-0.9-1.6-1.9c-0.1-0.6,0.1-1.2,0.4-1.7c1,0,1.4,0.7,1.8,1.4
	C60,84.4,59.9,84.9,60.4,84.9z"/>
<path class="st4" d="M60.4,84.9c-0.5,0-0.4-0.5-0.6-0.8c-0.4-0.7-0.9-1.4-1.8-1.4c0.2-0.7,0.5-1.4,1.2-1.7c0.2,0.5,0.6,0.6,1.1,0.5
	c0.4,0,0.9,0,1.1,0.5c-0.2,0.4-0.4,0.8-0.5,1.2c-0.3,0.1-0.6,0.2-0.2,0.5C60.7,84.1,60.7,84.5,60.4,84.9z"/>
<path class="st11" d="M56.6,86.5c1.4,1.9,3.2,3.1,5.6,3.8c1.7,0.5,3-0.5,4.5-0.4c0,0,0,0,0,0c0,0.1,0,0.3,0,0.4l0,0.1
	c0,0,0-0.1,0-0.1c-0.3,0-0.6,0-0.8,0.1c-3.8,1.5-8.3-0.9-9.5-3.6C56.4,86.7,56.5,86.6,56.6,86.5z"/>
<path class="st12" d="M75.4,79.2c-0.5,1.4-1.6,2.2-2.9,2.9c-0.4,0.2-0.7,0.1-0.9-0.2c-0.4-0.5-1.1-0.8-1.3-1.5
	c0.4,0.1,0.8,0.2,1.1,0.3c1,0.1,1.9,0.1,2.5-0.8C74.5,79.9,74.7,79,75.4,79.2z"/>
<path class="st4" d="M65.2,69.5c1.9,0,3.8,0,5.8,0c0.6,0.7,1.6-0.1,2.2,0.5c-0.2,0.3-0.8,0.2-0.7,0.7c-2.5-1.1-5.1-0.8-7.7-0.2
	c0-0.1,0-0.2,0-0.3C64.9,70,65.3,69.9,65.2,69.5z"/>
<path class="st15" d="M73.9,79.8c-0.6,0.9-1.6,0.9-2.5,0.8c-0.4,0-0.8-0.2-1.1-0.3c-0.6-0.3-1.2-0.5-1.9-0.8c0,0,0,0,0,0
	c-0.2-0.4-0.6-0.5-0.7-1c0-0.3,0-0.6,0-0.9c0.7,0.5,1,1.4,1.9,1.8C71,80.1,72.4,80.1,73.9,79.8z"/>
<path class="st12" d="M60,80.3c0.1-0.2,0.3-0.5,0.4-0.7c0.1-0.1,0.2-0.2,0.3-0.3c0,0,0,0,0,0c0.3,0,0.6,0,1,0
	c0.7,0.3,1.5,0.6,1.9-0.4c0.3,0,0.5,0,0.8,0.1c0,0.2,0,0.5-0.1,0.7c-0.1,0.5-0.5,0.6-1,0.6c-0.5,0-1,0-1.5,0
	C61.2,80.3,60.6,80.9,60,80.3z"/>
<path class="st14" d="M60,80.3c0.6,0.6,1.2,0,1.9,0c0.5,0,1,0,1.5,0c0,0.2-0.1,0.5-0.1,0.7c-0.7,0-1.5-0.2-1.6,0.9
	c-0.1,0-0.2,0-0.3,0c-0.2-0.5-0.7-0.5-1.1-0.5c-0.5,0-0.9,0-1.1-0.5C59.3,80.5,59.5,80.3,60,80.3z"/>
<path class="st8" d="M68.4,79.6c0.2,0.8,1,1.1,1.3,1.8c0.3,0.5,1.1,1,0.1,1.6c-0.6-1.6-1.9-2.6-3.4-3.3c0-0.2,0-0.4,0.1-0.6
	c0.2,0,0.3,0,0.5,0C67.4,79.4,67.8,79.6,68.4,79.6L68.4,79.6z"/>
<path class="st15" d="M56.6,86.5c-0.1,0.1-0.2,0.2-0.3,0.3c-1.2-1.5-1.5-3.3-1.4-5.1c0.2-0.6-0.1-1.2,0.3-1.8
	c0.4,0.9,0.1,1.8,0.2,2.7C55.5,84.1,56.1,85.3,56.6,86.5z"/>
<path class="st15" d="M67,79.1c-0.2,0-0.3,0-0.5,0c-0.7-0.2-1.4-0.2-2.1-0.1c-0.3,0-0.5,0-0.8-0.1c-0.7,0-1.3,0.1-1.9,0.4
	c-0.3,0-0.6,0-1,0c0.9-1.1,2.2-1.1,3.4-1.1c1,0,2.1,0,3,0.4C67.1,78.8,67,78.9,67,79.1z"/>
<path class="st6" d="M67.7,77.7c0,0.3,0,0.6,0,0.9c-0.2,0-0.3,0-0.5,0c-0.3-1.5,0-2.8,1.4-3.7c0.3-0.1,0.5-0.1,0.7,0.1
	c0.1,0.2,0.2,0.3,0.2,0.5C68.6,76,67.7,76.5,67.7,77.7z"/>
<path class="st4" d="M61.7,82c0.1-1.1,0.9-0.9,1.6-0.9c0,0.6,0.7,1.5,0.2,1.9c-0.6,0.4-0.9-0.7-1.6-0.9C61.8,82.1,61.7,82,61.7,82z"
	/>
<path class="st3" d="M69.6,75.5c-0.1-0.2-0.2-0.3-0.2-0.5c0.9-0.1,1.7,0.1,2.1,1c0,0.6-0.5,0.8-0.9,0.8
	C69.9,76.8,69.8,76.1,69.6,75.5z"/>
<path class="st15" d="M71.4,76c-0.4-1-1.2-1.2-2.1-1c-0.2-0.2-0.5-0.2-0.7-0.1c0.6-1,1.4-0.9,2.2-0.5C71.4,74.7,72,75.2,71.4,76z"/>
<path class="st3" d="M64.3,79c0.7-0.1,1.4-0.2,2.1,0.1c0,0.2,0,0.4-0.1,0.6c-0.7-0.1-1.4-0.1-2.1,0C64.3,79.5,64.3,79.2,64.3,79z"/>
<path class="st3" d="M67.2,78.7c0.2,0,0.3,0,0.5,0c0.1,0.4,0.5,0.6,0.7,1c-0.5,0.1-1-0.2-1.4-0.5c0-0.1,0.1-0.3,0.1-0.4
	C67.1,78.7,67.2,78.7,67.2,78.7z"/>
<path class="st4" d="M55,78.9c0-0.7,0-1.3,0.9-1.3C55.8,78.3,55.5,78.7,55,78.9z"/>
<path class="st4" d="M56.1,77.2c0-0.4,0-0.7,0.5-0.7C56.6,76.8,56.5,77.1,56.1,77.2z"/>
<path class="st14" d="M60.7,83.7c-0.4-0.3-0.1-0.4,0.2-0.5C60.9,83.4,60.9,83.6,60.7,83.7z"/>
<path class="st11" d="M67.2,89.7c0,0.1,0,0.2,0,0.2c-0.2,0-0.3,0-0.5,0c0,0,0,0,0,0C66.8,89.7,67,89.7,67.2,89.7z"/>
<path class="st11" d="M67.4,89.7c-0.1,0-0.2,0-0.2,0C67.2,89.6,67.3,89.6,67.4,89.7z"/>
<path class="st15" d="M60.7,79.4c-0.1,0.1-0.2,0.2-0.3,0.3C60.5,79.5,60.6,79.4,60.7,79.4z"/>
<path class="st6" d="M82,62.5c-0.1,1.4-1.6,3.1-2.8,3.4c-0.3,0.1-0.7,0.1-0.8-0.3c-0.3-0.9-1-0.8-1.7-0.9c-1.7-0.4-3.1-1.3-4.2-2.7
	c-2.8-3.6-2.6-7.5-1-11.5c0.6-1.6,1.6-3,2.7-4.3c0.2-0.2,0.4-0.4,0.7-0.4c-0.1,0.6-0.5,1-0.8,1.4c-1.3,1.5-1.8,3.3-2.3,5.1
	c0,0.1,0.1,0.3,0.2,0.4c-0.1,0.7-0.2,1.4-0.2,2.1c-0.5,0.2-0.4,0.6-0.4,1c0,2.1,0.6,4,1.8,5.7c0.6,0.8,1.3,1.8,2.5,1.8
	c0.1,0,0.1,0,0.2,0.1c0.1,0.3,0.3,0.5,0.6,0.3c1.7,0.5,3.3,0.8,4.8-0.6C81.4,62.9,81.7,62.7,82,62.5z"/>
<path class="st3" d="M83.7,49.2c0.1,0.5-0.1,0.6-0.5,0.7c-2.3,0.3-2.3,0.3-2.3,2.7c-0.2,0-0.3,0-0.5,0c-0.8-1.5-0.8-3-0.6-4.6
	c0.1-0.7,0.4-1.2,1-1.5c0.2,0.2,0.4,0.6,0.6,0.7c1,0.2,1.1,0.6,0.5,1.5c-0.3,0.5,0,0.8,0.6,0.7c0.3-0.1,0.5-0.1,0.8-0.2
	C83.5,49.1,83.6,49.1,83.7,49.2z"/>
<path class="st4" d="M83.3,49.1c-0.3,0.1-0.5,0.1-0.8,0.2c-0.6,0.1-0.9-0.3-0.6-0.7c0.5-0.8,0.4-1.2-0.5-1.5
	c-0.2-0.1-0.4-0.5-0.6-0.7c0-0.3,0.2-0.6,0.3-0.8c0.6-0.1,1.2,0.4,1.7,0.1c1.1-0.6,2.3-0.6,3.5-0.6c0.1,0.8-0.5,1-1,1.3
	c-0.7,0.5-1.6,0.6-2.2,1.3c-0.7,0-1,0.2-0.4,0.9C83,48.7,83.2,48.9,83.3,49.1z"/>
<path class="st6" d="M90.6,53.4c-0.4,2.2-2.7,4.6-4.8,5.1c-0.5,0.1-0.9,0-1.2-0.4c-0.6-0.8-1.2-1.6-1.4-2.7c0.3,0.2,0.6,0.3,1,0.5
	c0,0.6,0.2,1,0.8,1.2c1,0.3,3.3-0.8,3.8-1.9c0.1-0.2,0.2-0.3,0.4-0.5C89.8,54.4,90,53.7,90.6,53.4z"/>
<path class="st11" d="M81.1,63.1c-1.4,1.3-3.1,1.1-4.8,0.6c-0.1-0.3-0.3-0.4-0.6-0.3c-0.1,0-0.1,0-0.2-0.1c-0.4-0.5-0.9-1-1.3-1.5
	c-1-1.2-2.1-2.5-2-4.3c0.1,0,0.2,0,0.2,0c0.7,1.8,1.5,3.5,3.1,4.7c1.5,1.2,3.2,1.3,4.9,0.8C80.7,62.9,80.9,62.8,81.1,63.1z"/>
<path class="st15" d="M89.1,54.6c-0.1,0.2-0.2,0.3-0.4,0.5c-1.5,0.6-2.9,1.2-4.6,0.7c-0.3-0.2-0.6-0.3-1-0.5c-0.5-0.5-1.1-1-1.6-1.5
	c-0.2-0.5-0.6-0.8-0.6-1.4c0.1-0.6,0.3-0.3,0.4,0c0.9,1.4,2,2.4,3.7,2.8c1,0.2,1.9-0.1,2.8-0.4C88.4,54.8,88.7,54.6,89.1,54.6z"/>
<path class="st14" d="M86.4,45c-1.2,0-2.4,0-3.5,0.6c-0.5,0.3-1.1-0.3-1.7-0.1c0.3-0.7,1.2-0.6,1.4-1.3c0.2-0.1,0.4-0.2,0.6-0.3
	c0,0,0,0,0,0c0.3,0,0.5,0,0.8,0c0.6,0.8,1.2,0.5,1.9,0.2c0.3,0,0.4,0.2,0.5,0.4C86.4,44.7,86.4,44.9,86.4,45z"/>
<path class="st3" d="M79.2,57.5c-0.1,0.5,0.1,1.1-0.6,1.1c-0.7,0-1.3-0.3-1.6-1c-0.2-0.6-0.5-1.2,0.1-1.7c0.4-0.3,0.4,0.2,0.5,0.4
	c-0.1,0.5,0,0.7,0.5,0.8C78.5,57.2,78.9,57.2,79.2,57.5z"/>
<path class="st11" d="M86.4,44.5c-0.1-0.2-0.3-0.4-0.5-0.4c-0.6-0.4-1.2-0.6-1.9-0.2c-0.3,0-0.5,0-0.8,0c0.8-0.9,2.5-1,3.3-0.3
	C86.7,43.8,87.3,44.2,86.4,44.5z"/>
<path class="st15" d="M72.4,57.5c-0.1,0-0.2,0-0.2,0c-0.8-0.8-0.3-1.8-0.5-2.7c0.1-0.7,0.2-1.4,0.2-2.1c0.5,0.4,0.3,1,0.3,1.4
	C72.2,55.3,72.2,56.4,72.4,57.5z"/>
<path class="st14" d="M79.9,54.2c0.1,0.2,0.2,0.3,0.2,0.5c-0.9,0.1-1.6,0.6-2.3,1c-0.1-0.1-0.2-0.2-0.3-0.3c0-0.5,0.5-0.6,0.8-0.8
	C78.8,54.4,79.3,54.1,79.9,54.2z"/>
<path class="st15" d="M79.2,57.5c-0.3-0.3-0.7-0.3-1.1-0.4c-0.5-0.1-0.7-0.3-0.5-0.8c0.5,0.1,1,0.1,1.4,0.3
	C79.2,56.8,80,57,79.2,57.5z"/>
<path class="st5" d="M79.9,54.2c-0.6-0.1-1.1,0.2-1.7,0.3c0.4-1.1,1.4-0.9,2.2-1.1c0.1,0.2,0.1,0.4,0.2,0.5
	C80.4,54,80.1,54.1,79.9,54.2z"/>
<path class="st15" d="M83.3,49.1c-0.2-0.2-0.3-0.3-0.5-0.5c-0.6-0.6-0.3-0.8,0.4-0.9c-0.3,0.6,1.1,0.7,0.4,1.5
	C83.6,49.1,83.5,49.1,83.3,49.1z"/>
<path class="st6" d="M80.6,53.9c-0.1-0.2-0.1-0.4-0.2-0.5c0-0.3-0.1-0.6-0.1-0.9c0.2,0,0.3,0,0.5,0c0.1,0,0.1,0,0.2,0
	c0,0.5,0.4,0.9,0.6,1.4C81.3,53.9,81,53.9,80.6,53.9z"/>
<path class="st11" d="M83.1,43.8c-0.2,0.1-0.4,0.2-0.6,0.3C82.6,43.9,82.9,43.9,83.1,43.8z"/>
<path class="st3" d="M77.5,55.3c0.1,0.1,0.2,0.2,0.3,0.3C77.6,55.6,77.5,55.5,77.5,55.3z"/>
<path class="st1" d="M35.4,33.5c0.1,0,0.1,0,0.1,0.1c0,0.2,0.2,0.3,0.4,0.4c0.1,0,0.1,0,0.1,0.1c0,1,0.6,1.5,1.4,1.8c0,0,0,0,0,0
	c-0.2,1,1,1.2,1.1,2c-2.1-0.8-3.9-2.1-5.8-3.2c-2.3-1.2-4.6-2.6-7.3-2.6c-0.4,0.2-1.2-0.1-1.2,0.8c0,0.1,0,0.2,0,0.2
	c-0.8,0.1-1.3,0.4-1.2,1.3c0.1,0.5,0.4,1,0.9,0.9c0.7-0.1,0.5-0.8,0.6-1.3c0.4-0.1,0.7-0.2,1.1-0.3c2.1,0.4,3.1,3.3,1.2,5.4
	c0-0.1,0-0.1,0-0.2c-0.5-0.4-1,0.1-1.5,0.1c-2.2,0-3.8-1.2-5.2-2.7c-0.5-0.9-0.9-1.8-1.2-2.7c-0.1-0.3,0-0.8-0.5-0.8
	c0-0.3,0-0.7,0-1c0,0,0,0,0,0c0.6-0.6,1.3-1.1,1.8-1.9c0.2-0.1,0.4-0.2,0.6-0.3c0.9-0.5,2-0.6,3-0.7c3.1-0.2,5.9,0.9,8.5,2.4
	c0.9,0.5,1.4,1.7,2.6,1.6c0.1,0,0.1,0,0.1,0.1C35,33.4,35.2,33.5,35.4,33.5z"/>
<path class="st10" d="M43.4,68c0.3,0,0.6,0,1,0c-0.5,1.2-1.4,2.1-2.8,2.1c-1.8,0.1-3.6,0.5-5.4,0.3c-3.3-0.4-6.5-0.2-9.8-0.2
	c-0.7,0-1.4-0.3-1.4-0.9c0-0.7-0.9-1.5,0-2.3c0.2,0.3,0,0.9,0.5,0.9c1.5,0.7,3.1,1.2,4.8,0.7c1.1-0.3,2.3-0.3,3.4,0.2
	c0.7,0.3,1.4,0.4,2.2,0.4c1.5,0,3,0.1,4.4-0.6C41.3,68.2,42.5,68.6,43.4,68z"/>
<path class="st10" d="M16.8,30.9c0,0.2,0,0.3-0.1,0.5c-2.1,1.9-4.4,2.2-7,1.3c-2.5-0.9-4.5-2.4-6.2-4.3c-2-2.2-2.7-4.9-2.4-7.8
	c0-0.3,0-0.6,0.5-0.7c0,1.7,0.1,3.5,0.9,5C4.6,29,8,31.5,12.7,32c1.1,0.1,2.3,0.3,3.1-0.9c0.2-0.1,0.5-0.2,0.7-0.2
	C16.6,30.9,16.7,30.9,16.8,30.9z"/>
<path class="st6" d="M41.3,40c0.1,0,0.2,0,0.4,0.1c0,0.6-0.4,0.8-0.9,0.9c-1.7,0.1-3.4-0.3-5-0.8c-1.9-0.6-3.5-1.8-5.3-2.7
	c-1.7-0.8-1.5-2.5-1.9-3.9c0.1,0,0.3,0,0.4,0c0.3,1.3,1.4,2,2.5,2.6c1.9,1.1,3.8,2,5.7,3c0.3,0.2,0.7,0.6,1.1,0.3
	c0.7-0.6,1.2-0.1,1.5,0.3C40.2,40.1,40.7,40.2,41.3,40z"/>
<path class="st4" d="M1.6,19.8c-0.4,0.1-0.4,0.4-0.5,0.7c-0.3,2.9,0.5,5.6,2.4,7.8c1.7,1.9,3.7,3.5,6.2,4.3c2.6,0.9,5,0.6,7-1.3
	c0,1-1,2-2.3,2.4c-2.9,0.8-5.4-0.1-7.8-1.6c-2.5-1.5-4.4-3.6-5.5-6.4c-0.9-2.3-0.7-4.6-0.2-6.9c0-0.1,0.3-0.1,0.4-0.2
	c0,0.3,0,0.5,0.2,0.7C1.6,19.5,1.6,19.7,1.6,19.8z"/>
<path class="st10" d="M26.9,39.1c0.1,0.7-0.7,0.8-0.7,1.3c-2.4,1.8-3.8,1.3-6.1-0.5c-2-1.6-2.5-3.8-2.3-6.2c0-0.2,0-0.3,0-0.5
	c0.2,0,0.4,0,0.6,0c0,0.4,0.1,0.8,0.1,1.2c-0.5,0.4-0.3,0.9-0.2,1.4c0.7,2.3,2.5,3.7,4.7,4.5c0.8,0.3,2,0.6,2.7-0.6
	c0.4-0.3,0.8-0.6,1.2-0.8C26.8,39,26.8,39.1,26.9,39.1z"/>
<path class="st6" d="M49.2,31.9c-1.1,1.9-2.3,3.8-3.3,5.7c-1.3,2.4-2.6,4.8-3.9,7.2c-0.9,1.6-1.6,3.3-2.8,4.6c0-1.4,1-2.4,1.6-3.5
	c2.3-4.3,4.8-8.6,7.2-12.9C48.2,32.4,48.5,31.9,49.2,31.9z"/>
<path class="st4" d="M17.7,33.8c-0.2,2.4,0.3,4.6,2.3,6.2c2.3,1.9,3.7,2.4,6.1,0.5c0.4,0.6-0.2,0.8-0.4,1c-1.5,1.3-3.6,1.1-5.5-0.3
	c-1.9-1.4-2.9-3.3-3.2-5.6C17,34.9,17,34.2,17.7,33.8z"/>
<path class="st11" d="M29,33.6c-0.1,0-0.3,0-0.4,0c-0.8-0.1-1.5-0.9-2.4-0.7c-0.2,0-0.3-0.1-0.5-0.1c-0.1-0.2-0.2-0.4-0.2-0.7
	c2.7,0.1,5,1.4,7.3,2.6c1.9,1.1,3.8,2.3,5.8,3.2c0.1,0.1,0.2,0.3,0.3,0.4c-0.4,0.8-0.8,0.1-1.1-0.1C34.8,36.8,32,34.9,29,33.6z"/>
<path class="st4" d="M20.2,29.9c-0.5,0.8-1.1,1.3-1.8,1.9c0.1-0.4,0.2-0.8,0.2-1.2c0-0.6-0.3-1-0.9-0.9c0-0.3,0-0.5,0.2-0.7
	c0.8-0.2,0.8-0.9,1-1.4c0.3,0.2,0.3,0.6,0.2,0.9C19,29.2,19.4,29.7,20.2,29.9z"/>
<path class="st6" d="M39.1,49.4c-0.8,1.9-1.6,3.8-3.1,5.3C36.7,52.7,37.5,50.8,39.1,49.4z"/>
<path class="st14" d="M25.6,32.8c0.2,0,0.3,0.1,0.5,0.1c0,0.3-0.2,0.4-0.5,0.4c-0.7,0.1,0,0.3,0,0.5c-0.4,0.1-0.7,0.2-1.1,0.3
	c-0.1-0.3-0.2-0.6-0.3-1c0-0.1,0-0.2,0-0.2C24.7,32.8,25.2,32.8,25.6,32.8z"/>
<path class="st6" d="M36,54.9c-0.3,0.9-0.6,1.7-1.4,2.2C34.8,56.2,34.9,55.2,36,54.9z"/>
<path class="st4" d="M18.4,33.3c-0.2,0-0.4,0-0.6,0c-0.2-0.7,0.1-1.2,0.7-1.4c0,0.3,0,0.7,0,1C18.4,33,18.4,33.1,18.4,33.3z"/>
<path class="st10" d="M1.6,19.4c-0.3-0.2-0.2-0.5-0.2-0.7c0-0.2,0-0.5,0-0.7c0.2,0,0.4,0,0.7,0c0,0.2,0,0.3,0,0.5
	c0,0.3,0,0.6-0.1,0.9C1.9,19.3,1.8,19.4,1.6,19.4z"/>
<path class="st4" d="M2.1,17.9c-0.2,0-0.4,0-0.7,0c0.1-0.8,0.6-1.3,1.2-1.7C2.4,16.8,2.3,17.3,2.1,17.9z"/>
<path class="st4" d="M16.8,30.9c-0.1,0-0.2,0-0.3,0c0.1-0.2,0.2-0.3,0.3-0.5c0,0,0,0,0,0c0.1,0,0.1,0,0.2-0.1
	c0.2-0.1,0.3-0.1,0.5-0.2C17.5,30.6,17.4,30.9,16.8,30.9z"/>
<path class="st4" d="M3.3,15.3c0,0.3-0.2,0.6-0.5,0.7C2.8,15.7,2.8,15.3,3.3,15.3z"/>
<path class="st4" d="M12.2,22.8c0.9-0.1,1.7-0.6,2.7-0.1c0,0.2,0,0.5,0,0.7c-0.8,0.1-1.7,0.1-2,1.1c-0.5,0.6,0.1,0.8,0.4,0.9
	c0.7,0.4,1.4,0.9,2,1.4c-0.1,1.1-1,1.1-1.8,1c-1.3-0.3-2-1.3-2.4-2.4C10.6,24.3,11.4,23.5,12.2,22.8z"/>
<path class="st11" d="M16.8,30.4c-0.1,0.2-0.2,0.3-0.3,0.5C16.3,31,16,31,15.8,31.1c-1.6,0.3-3.2,0.4-4.9-0.3
	c-2.6-1.1-5-2.4-6.5-4.9c0.1-0.1,0.1-0.1,0.2-0.2c1.2,0.8,2.1,2.1,3.3,2.9C10.7,30.4,13.5,31.3,16.8,30.4z"/>
<path class="st3" d="M14.8,23.4c0-0.2,0-0.5,0-0.7c1.6,0.3,2.8,1,3.4,2.6c-0.1,0.5,0.1,0.8,0.6,0.8c0,0.3,0.1,0.6,0.1,0.9
	c0,0.2,0,0.3,0,0.5c-0.2,0.6-0.2,1.3-1,1.4c-0.1-1.1-0.5-2.1-0.8-3.2C16.9,24.5,16.2,23.6,14.8,23.4z"/>
<path class="st15" d="M2.1,19.3c0-0.3,0-0.6,0.1-0.9c0.5,0.5,0.2,1.1,0.3,1.6c0.2,2.1,1.1,3.8,2.1,5.6c-0.1,0-0.3,0-0.4,0.1
	c-0.4-0.2-0.6-0.6-0.8-1C2.3,23,1.9,21.2,2.1,19.3z"/>
<path class="st15" d="M15.3,26.9c-0.6-0.5-1.3-1.1-2-1.4c-0.3-0.2-0.9-0.3-0.4-0.9c0.9,0.5,1.9,0.7,2.5,1.7
	C15.5,26.5,15.5,26.7,15.3,26.9z"/>
<path class="st4" d="M17.9,22.9c-0.2,0-0.5-0.1-0.7-0.1c-0.1-0.2-0.1-0.3-0.2-0.5c0.2,0,0.3,0,0.5,0C17.9,22.3,18,22.5,17.9,22.9z"
	/>
<path class="st11" d="M4.1,25.6c0.1,0,0.3,0,0.4-0.1c0,0.1,0,0.1,0.1,0.2c-0.1,0.1-0.1,0.1-0.2,0.2C4.3,25.8,4.2,25.7,4.1,25.6z"/>
<path class="st11" d="M17,30.4c-0.1,0-0.1,0.1-0.2,0.1C16.8,30.4,16.9,30.4,17,30.4z"/>
<path class="st15" d="M40,23c-0.7,1.1-1.7,0.8-2.7-0.1c-0.8-0.7-1.3-1.7-1.3-2.8c0.4,0,0.4,0.3,0.5,0.5C37.1,22.2,38.3,23,40,23z"/>
<path class="st10" d="M42.4,23c-0.8-0.3-2-0.1-1.9-1.6c0.8,0,1.6,0.2,1.9,1.1C42.5,22.6,42.5,22.8,42.4,23z"/>
<path class="st15" d="M42.5,22.5c-0.3-0.9-1.1-1-1.9-1.1c-0.2,0-0.3-0.1-0.5-0.1c0.4-0.9,1.1-0.5,1.6-0.3c0.6,0.1,1.1,0.5,1.2,1.2
	C42.9,22.4,42.7,22.4,42.5,22.5z"/>
<path class="st6" d="M65.2,69.5c0,0.4-0.3,0.5-0.5,0.7c-0.6,0-1.1,0-1.7,0c-4.2-0.3-8.4,0.6-12.6,0c-1.5-0.2-1.8-0.5-1.8-2
	c0.4,0.1,0.8,0.3,1.1,0.7c0.2,0.2,0.4,0.5,0.6,0.5c2.1,0.2,4.2,0.9,6.5,0.2c1.6-0.5,3.2-0.1,4.9-0.1C62.9,69.5,64.1,69.5,65.2,69.5z
	"/>
<path class="st4" d="M48.7,68.3c-0.1,1.5,0.3,1.8,1.8,2c4.2,0.6,8.4-0.3,12.6,0c-0.4,0.8-1.1,0.7-1.7,0.7c-3.5,0-6.9,0-10.4,0
	c-0.6,0-1.2-0.1-1.7-0.3c-1.3-0.5-1.6-2.3-0.5-3.2C48.7,67.7,48.7,68,48.7,68.3z"/>
<path class="st4" d="M54.2,87.8c0.6,0.1,0.6,0.6,0.8,0.9c1.9,3.5,4.8,4.7,8.5,4.3c1.1-0.1,2.3-0.6,3.2-1.5c0.4-0.4,0.7-1,1.4-1.1
	c-0.9,2.1-4.1,3.7-6.7,3.4c-3.2-0.4-5.5-2-7-4.9C54.3,88.5,54.2,88.2,54.2,87.8z"/>
<path class="st4" d="M53.5,85.4c0.8,0.5,0.6,1.4,0.7,2.2C53.3,87,53.5,86.1,53.5,85.4z"/>
<path class="st4" d="M54.2,81c-0.3,0.6-0.1,1.3-0.5,1.9C53.3,82.2,53.3,81.5,54.2,81z"/>
<path class="st4" d="M68.1,90.2c0.1-0.4,0.2-0.8,0.3-1.2C69,89.5,68.9,89.7,68.1,90.2z"/>
<path class="st4" d="M54.7,79.4c0,0.3,0,0.7-0.5,0.7C54.2,79.7,54.2,79.4,54.7,79.4z"/>
<path class="st6" d="M73.2,70c-0.6-0.6-1.6,0.2-2.2-0.5c0.6-0.4,1.3-0.2,2-0.2c1.1,0,2.2,0.1,3.1-0.7c0.2-0.2,0.6-0.2,0.9-0.2
	c0,0.1,0,0.2,0,0.2c-0.9,0.5-1.3,1.8-2.6,1.4C74,70,73.6,70,73.2,70z"/>
<path class="st4" d="M74.4,70c1.3,0.3,1.8-0.9,2.6-1.4c-0.3,1.3-0.9,1.9-2.1,1.9C74.6,70.5,74.4,70.3,74.4,70z"/>
<path class="st2" d="M13.9,13.4c0.2-0.7,0.8-0.5,1.3-0.4c1.5,0.5,2.1,1.4,2.1,3.3c-0.5,0.6,0.1,1.6-0.8,1.9
	c-0.6-0.2-0.9-0.8-1.2-1.3c-0.6-0.9-0.7-2.1-1.3-3.1C13.9,13.7,13.9,13.5,13.9,13.4z"/>
<path class="st4" d="M16.4,18.2c1-0.4,0.4-1.4,0.8-1.9c0.2,0,0.4,0,0.5,0c0.2,0.2,0.3,0.4,0.1,0.6c-0.5,1-0.5,1.9-0.2,2.9
	c0.1,0.2,0,0.4-0.2,0.5c-0.4-0.4-0.8-0.9-1.2-1.3C16.3,18.7,16.3,18.4,16.4,18.2z"/>
<path class="st15" d="M16.4,18.2c0,0.3,0,0.5-0.1,0.8c-1.8-1.2-2.5-3-2.6-5.1c0,0,0.1,0,0.1,0l0.1,0c0.5,1,0.6,2.1,1.3,3.1
	C15.5,17.4,15.7,18,16.4,18.2z"/>
<path class="st4" d="M15.8,11.4c0.6,0.2,1.1,0.7,1.5,1.2c-0.8-0.3-1.8-0.2-2.5-0.9C15.2,11.6,15.6,11.8,15.8,11.4z"/>
<path class="st4" d="M18.1,13.8c0.2,0.3,0.4,0.6,0.4,1c-0.5,0.2-0.1,1-0.8,1C17.9,15.1,17.4,14.3,18.1,13.8z"/>
<path class="st10" d="M15.8,11.4c-0.2,0.4-0.6,0.2-1,0.3c-0.2-0.3-0.3-0.6-0.3-1c0.1-0.1,0.2-0.2,0.3-0.2
	C15.2,10.7,15.6,11,15.8,11.4z"/>
<path class="st6" d="M13.9,13.9L13.9,13.9c-0.1,0-0.2,0-0.2,0c-0.4-0.3-0.2-0.4,0.2-0.5C13.9,13.5,13.9,13.7,13.9,13.9z"/>
<path class="st4" d="M14.8,10.5c-0.1,0.1-0.2,0.2-0.3,0.2c-0.2-0.2-0.2-0.3,0-0.5C14.7,10.3,14.8,10.4,14.8,10.5z"/>
<path class="st14" d="M50.8,60.6c-0.5,0-0.9-0.1-1.2-0.5C50.2,59.9,50.6,60,50.8,60.6z"/>
<path class="st14" d="M51.6,60.6c0.2,0.2,0.3,0.3,0.5,0.5c0,0.2,0,0.3,0,0.5c-0.6-0.1-0.9-0.4-1-1C51.2,60.6,51.4,60.6,51.6,60.6z"
	/>
<path class="st5" d="M43.4,68c-0.9,0.5-2.1,0.1-3,0.6c-1.4,0.7-2.9,0.7-4.4,0.6c-0.7,0-1.4-0.1-2.2-0.4c-1.1-0.5-2.3-0.5-3.4-0.2
	c-1.7,0.5-3.2,0-4.8-0.7c0.6-0.5,1.1,0,1.7,0c2.8,0,5.7-0.1,8.5,0.2c2,0.2,4-0.2,5.9-0.4C42.3,67.8,42.9,67.7,43.4,68z"/>
<path class="st10" d="M52,61.6c0-0.2,0-0.3,0-0.5c0.6,0,0.7,0.4,0.7,1c-0.2,0-0.3,0-0.5,0C52.1,62,52,61.8,52,61.6z"/>
<path class="st14" d="M53.2,62.8c0,0.2,0,0.5,0,0.7c-0.7-0.1-0.4-0.6-0.5-0.9c0,0,0,0,0,0C52.9,62.6,53.1,62.7,53.2,62.8z"/>
<path class="st14" d="M52.3,62.1c0.2,0,0.3,0,0.5,0c0,0,0,0,0,0c0,0.2,0,0.3,0,0.5c0,0,0,0,0,0C52.4,62.6,52.3,62.4,52.3,62.1z"/>
<path class="st10" d="M52.8,62.6c0-0.2,0-0.3,0-0.5c0.5,0,0.5,0.4,0.5,0.7C53.1,62.7,52.9,62.6,52.8,62.6z"/>
<path class="st0" d="M57.6,48.6c0,0.1,0,0.2,0,0.3c-0.7-0.4-1.6,0-2.2-0.7C56.1,48,56.9,48.2,57.6,48.6z"/>
<path class="st12" d="M61.6,61.9c0,0.2,0,0.4,0,0.7c-0.5,0.1-0.8-0.1-0.8-0.6C61.1,61.9,61.4,61.9,61.6,61.9z"/>
<path class="st0" d="M50.8,41.7c0.4-0.3,0.8-0.3,1.2,0C51.6,42,51.2,42,50.8,41.7z"/>
<path class="st0" d="M52.7,41.7c0.4-0.1,0.8,0,1,0.4C53.3,42.1,52.9,42.3,52.7,41.7z"/>
<path class="st11" d="M64.8,61.8c-0.7,0.2-1.4-0.5-2.1,0c-0.2,0-0.5,0-0.7,0c0-0.2,0-0.4,0-0.6C62.9,61.2,63.9,61,64.8,61.8z"/>
<path class="st3" d="M32.3,31.4c-2.6-1.5-5.4-2.6-8.5-2.4c-1,0.1-2.1,0.1-3,0.7c-0.2-0.7,0.7-0.6,0.7-1.2c0.3,0,0.7,0,0.7-0.5
	c0.2,0,0.5,0,0.7,0c1.3,0.2,2.6-0.1,3.9,0.2c2.2,0.4,4.1,1.4,5.7,2.9C32.5,31.2,32.4,31.3,32.3,31.4z"/>
<path class="st10" d="M38.9,38.3c-0.1-0.1-0.2-0.3-0.3-0.4c-0.1-0.8-1.3-1-1.1-2c0.4,0.1,0.6,0.6,0.9,0.8c0.3,0.6,0.9,1,1.1,1.6
	C39.2,38.3,39,38.3,38.9,38.3z"/>
<path class="st6" d="M32.3,31.4c0.1-0.1,0.2-0.2,0.3-0.4c0.9,0.5,1.6,1.3,2.2,2C33.7,33.1,33.2,31.9,32.3,31.4z"/>
<path class="st10" d="M37.4,35.9c-0.8-0.3-1.5-0.8-1.4-1.8C36.5,34.7,37.2,35.1,37.4,35.9z"/>
<path class="st10" d="M35.8,34c-0.2,0-0.3-0.2-0.4-0.4C35.6,33.8,35.7,33.9,35.8,34z"/>
<path class="st6" d="M35.4,33.5c-0.2,0-0.3-0.1-0.4-0.4C35.1,33.3,35.2,33.4,35.4,33.5z"/>
<path class="st12" d="M22.3,28c0,0.5-0.4,0.4-0.7,0.5c-1.1,0.1-2,0-2.3-1.3c0-0.1-0.2-0.1-0.3-0.1c0-0.3-0.1-0.6-0.1-0.9
	c0-0.1,0-0.1,0-0.2c0.1,0,0.2,0,0.2,0C19.9,27,21,27.6,22.3,28z"/>
<path class="st6" d="M18.9,25.9c0,0.1,0,0.1,0,0.2c-0.5,0-0.7-0.3-0.6-0.8C18.6,25.3,18.7,25.7,18.9,25.9z"/>
<path class="st9" d="M38.9,38.3c0.2,0,0.4,0,0.6,0c0.8,0.4,1.3,1.1,1.8,1.7c-0.6,0.2-1,0.1-1.5-0.3c-0.4-0.4-0.9-0.8-1.5-0.3
	c-0.3,0.3-0.8-0.1-1.1-0.3c-1.9-1-3.8-1.9-5.7-3c-1.1-0.6-2.2-1.2-2.5-2.6c3,1.3,5.8,3.2,8.8,4.7C38,38.4,38.4,39.1,38.9,38.3z"/>
<path class="st7" d="M54.9,81.7c-0.1,1.9,0.3,3.6,1.4,5.1c1.2,2.7,5.7,5.1,9.5,3.6c0.3-0.1,0.5-0.1,0.8-0.1
	c-0.5,1.2-1.7,1.3-2.7,1.5c-6.1,1-9.9-5-9.5-9.2C54.5,82.2,54.4,81.8,54.9,81.7z"/>
<path class="st7" d="M66.7,89.9c0.2,0,0.3,0,0.5,0c0,0.3-0.2,0.5-0.5,0.4C66.6,90.2,66.7,90.1,66.7,89.9z"/>
<path class="st1" d="M61.6,79.4c0.6-0.3,1.3-0.4,1.9-0.4C63.1,80,62.4,79.7,61.6,79.4z"/>
<path class="st2" d="M71.7,54.8c0.3,0.9-0.3,1.9,0.5,2.7c0,1.8,1,3,2,4.3c0.4,0.5,0.9,1,1.3,1.5c-1.3,0-1.9-1-2.5-1.8
	c-1.2-1.7-1.8-3.6-1.8-5.7C71.2,55.4,71.1,55,71.7,54.8z"/>
<path class="st2" d="M75.8,63.4c0.3-0.1,0.5,0,0.6,0.3C76,63.8,75.9,63.7,75.8,63.4z"/>
<path class="st7" d="M84.2,55.8c1.6,0.5,3.1-0.1,4.6-0.7c-0.5,1-2.8,2.2-3.8,1.9C84.4,56.8,84.2,56.4,84.2,55.8z"/>
<path class="st2" d="M84,43.9c0.7-0.4,1.3-0.1,1.9,0.2C85.2,44.4,84.5,44.7,84,43.9z"/>
<path class="st11" d="M26.8,39c-0.4,0.3-0.8,0.6-1.2,0.8c-2.5,0-4.4-1.1-5.8-3.1c0.1-0.1,0.2-0.2,0.3-0.3c1.4,1.5,2.9,2.7,5.2,2.7
	C25.8,39.1,26.3,38.5,26.8,39z"/>
<path class="st6" d="M18.9,27c0.1,0,0.3,0.1,0.3,0.1c0.3,1.3,1.2,1.4,2.3,1.3c0,0.5-1,0.5-0.7,1.2c-0.2,0.1-0.4,0.2-0.6,0.3
	c-0.8-0.2-1.2-0.7-1.1-1.6c0-0.3,0.1-0.6-0.2-0.9C18.9,27.4,18.9,27.2,18.9,27z"/>
<path class="st3" d="M24.2,33.1c0.1,0.3,0.2,0.6,0.3,1c-0.1,0.5,0.1,1.2-0.6,1.3c-0.5,0-0.8-0.4-0.9-0.9
	C22.9,33.5,23.4,33.2,24.2,33.1z"/>
<path class="st15" d="M20.1,36.4c-0.1,0.1-0.2,0.2-0.3,0.3c-0.7-0.6-1-1.4-1.3-2.2c0-0.4-0.1-0.8-0.1-1.2c0-0.1,0.1-0.3,0.1-0.4
	c0.5,0,0.4,0.5,0.5,0.8C19.3,34.6,19.7,35.5,20.1,36.4z"/>
<path class="st15" d="M25.6,32.8c-0.5,0-0.9,0.1-1.4,0.1c0-0.9,0.8-0.5,1.2-0.8C25.5,32.3,25.6,32.5,25.6,32.8z"/>
<path class="st9" d="M4.1,25.6c0.1,0.1,0.2,0.2,0.2,0.3c1.5,2.5,3.9,3.8,6.5,4.9c1.6,0.7,3.2,0.5,4.9,0.3c-0.8,1.2-2,1-3.1,0.9
	C8,31.5,4.6,29,2.5,24.8c-0.8-1.6-0.9-3.3-0.9-5c0-0.2,0-0.3,0-0.5c0.1,0,0.3,0,0.4,0c-0.1,1.9,0.3,3.7,1.3,5.3
	C3.6,25,3.7,25.4,4.1,25.6z"/>
<path class="st9" d="M18.5,34.5c0.4,0.8,0.7,1.6,1.3,2.2c1.4,2,3.3,3.2,5.8,3.1c-0.7,1.1-1.9,0.8-2.7,0.6c-2.2-0.8-3.9-2.1-4.7-4.5
	C18.2,35.4,18,34.9,18.5,34.5z"/>
</svg>
